<svg xmlns="http://www.w3.org/2000/svg" width="400" height="464" viewBox="0 0 400 464" shape-rendering="crispEdges" role="img"><title>Exchange connectivity</title><style>.led{animation:blink 1s steps(1) infinite}@keyframes blink{50%{opacity:.15}}@media (prefers-reduced-motion:reduce){.led{animation:none}}</style><defs><path id="c26" d="M1 0h2v1h-2zM0 1h1v1h-1zM3 1h1v1h-1zM0 2h1v1h-1zM2 2h1v1h-1zM1 3h1v1h-1zM0 4h1v1h-1zM2 4h1v1h-1zM4 4h1v1h-1zM0 5h1v1h-1zM3 5h1v1h-1zM1 6h2v1h-2zM4 6h1v1h-1z"/><path id="c2e" d="M1 5h2v1h-2zM1 6h2v1h-2z"/><path id="c42" d="M0 0h4v1h-4zM0 1h1v1h-1zM4 1h1v1h-1zM0 2h1v1h-1zM4 2h1v1h-1zM0 3h4v1h-4zM0 4h1v1h-1zM4 4h1v1h-1zM0 5h1v1h-1zM4 5h1v1h-1zM0 6h4v1h-4z"/><path id="c43" d="M1 0h3v1h-3zM0 1h1v1h-1zM4 1h1v1h-1zM0 2h1v1h-1zM0 3h1v1h-1zM0 4h1v1h-1zM0 5h1v1h-1zM4 5h1v1h-1zM1 6h3v1h-3z"/><path id="c45" d="M0 0h5v1h-5zM0 1h1v1h-1zM0 2h1v1h-1zM0 3h4v1h-4zM0 4h1v1h-1zM0 5h1v1h-1zM0 6h5v1h-5z"/><path id="c47" d="M1 0h3v1h-3zM0 1h1v1h-1zM4 1h1v1h-1zM0 2h1v1h-1zM0 3h1v1h-1zM2 3h3v1h-3zM0 4h1v1h-1zM4 4h1v1h-1zM0 5h1v1h-1zM4 5h1v1h-1zM1 6h4v1h-4z"/><path id="c48" d="M0 0h1v1h-1zM4 0h1v1h-1zM0 1h1v1h-1zM4 1h1v1h-1zM0 2h1v1h-1zM4 2h1v1h-1zM0 3h5v1h-5zM0 4h1v1h-1zM4 4h1v1h-1zM0 5h1v1h-1zM4 5h1v1h-1zM0 6h1v1h-1zM4 6h1v1h-1z"/><path id="c4b" d="M0 0h1v1h-1zM4 0h1v1h-1zM0 1h1v1h-1zM3 1h1v1h-1zM0 2h1v1h-1zM2 2h1v1h-1zM0 3h2v1h-2zM0 4h1v1h-1zM2 4h1v1h-1zM0 5h1v1h-1zM3 5h1v1h-1zM0 6h1v1h-1zM4 6h1v1h-1z"/><path id="c4f" d="M1 0h3v1h-3zM0 1h1v1h-1zM4 1h1v1h-1zM0 2h1v1h-1zM4 2h1v1h-1zM0 3h1v1h-1zM4 3h1v1h-1zM0 4h1v1h-1zM4 4h1v1h-1zM0 5h1v1h-1zM4 5h1v1h-1zM1 6h3v1h-3z"/><path id="c54" d="M0 0h5v1h-5zM2 1h1v1h-1zM2 2h1v1h-1zM2 3h1v1h-1zM2 4h1v1h-1zM2 5h1v1h-1zM2 6h1v1h-1z"/><path id="c55" d="M0 0h1v1h-1zM4 0h1v1h-1zM0 1h1v1h-1zM4 1h1v1h-1zM0 2h1v1h-1zM4 2h1v1h-1zM0 3h1v1h-1zM4 3h1v1h-1zM0 4h1v1h-1zM4 4h1v1h-1zM0 5h1v1h-1zM4 5h1v1h-1zM1 6h3v1h-3z"/><path id="c58" d="M0 0h1v1h-1zM4 0h1v1h-1zM0 1h1v1h-1zM4 1h1v1h-1zM1 2h1v1h-1zM3 2h1v1h-1zM2 3h1v1h-1zM1 4h1v1h-1zM3 4h1v1h-1zM0 5h1v1h-1zM4 5h1v1h-1zM0 6h1v1h-1zM4 6h1v1h-1z"/><path id="c61" d="M1 2h3v1h-3zM4 3h1v1h-1zM1 4h4v1h-4zM0 5h1v1h-1zM4 5h1v1h-1zM1 6h4v1h-4z"/><path id="c62" d="M0 0h1v1h-1zM0 1h1v1h-1zM0 2h1v1h-1zM2 2h2v1h-2zM0 3h2v1h-2zM4 3h1v1h-1zM0 4h1v1h-1zM4 4h1v1h-1zM0 5h1v1h-1zM4 5h1v1h-1zM0 6h4v1h-4z"/><path id="c63" d="M1 2h3v1h-3zM0 3h1v1h-1zM0 4h1v1h-1zM0 5h1v1h-1zM4 5h1v1h-1zM1 6h3v1h-3z"/><path id="c64" d="M4 0h1v1h-1zM4 1h1v1h-1zM1 2h2v1h-2zM4 2h1v1h-1zM0 3h1v1h-1zM3 3h2v1h-2zM0 4h1v1h-1zM4 4h1v1h-1zM0 5h1v1h-1zM4 5h1v1h-1zM1 6h4v1h-4z"/><path id="c65" d="M1 2h3v1h-3zM0 3h1v1h-1zM4 3h1v1h-1zM0 4h5v1h-5zM0 5h1v1h-1zM1 6h3v1h-3z"/><path id="c66" d="M2 0h2v1h-2zM1 1h1v1h-1zM4 1h1v1h-1zM1 2h1v1h-1zM0 3h3v1h-3zM1 4h1v1h-1zM1 5h1v1h-1zM1 6h1v1h-1z"/><path id="c67" d="M1 2h4v1h-4zM0 3h1v1h-1zM4 3h1v1h-1zM0 4h1v1h-1zM4 4h1v1h-1zM1 5h4v1h-4zM4 6h1v1h-1zM1 7h3v1h-3z"/><path id="c68" d="M0 0h1v1h-1zM0 1h1v1h-1zM0 2h1v1h-1zM2 2h2v1h-2zM0 3h2v1h-2zM4 3h1v1h-1zM0 4h1v1h-1zM4 4h1v1h-1zM0 5h1v1h-1zM4 5h1v1h-1zM0 6h1v1h-1zM4 6h1v1h-1z"/><path id="c69" d="M2 0h1v1h-1zM1 2h2v1h-2zM2 3h1v1h-1zM2 4h1v1h-1zM2 5h1v1h-1zM1 6h3v1h-3z"/><path id="c6b" d="M0 0h1v1h-1zM0 1h1v1h-1zM0 2h1v1h-1zM3 2h1v1h-1zM0 3h1v1h-1zM2 3h1v1h-1zM0 4h2v1h-2zM0 5h1v1h-1zM2 5h1v1h-1zM0 6h1v1h-1zM3 6h1v1h-1z"/><path id="c6e" d="M0 2h1v1h-1zM2 2h2v1h-2zM0 3h2v1h-2zM4 3h1v1h-1zM0 4h1v1h-1zM4 4h1v1h-1zM0 5h1v1h-1zM4 5h1v1h-1zM0 6h1v1h-1zM4 6h1v1h-1z"/><path id="c6f" d="M1 2h3v1h-3zM0 3h1v1h-1zM4 3h1v1h-1zM0 4h1v1h-1zM4 4h1v1h-1zM0 5h1v1h-1zM4 5h1v1h-1zM1 6h3v1h-3z"/><path id="c70" d="M0 2h4v1h-4zM0 3h1v1h-1zM4 3h1v1h-1zM0 4h1v1h-1zM4 4h1v1h-1zM0 5h4v1h-4zM0 6h1v1h-1zM0 7h1v1h-1z"/><path id="c72" d="M0 2h1v1h-1zM2 2h2v1h-2zM0 3h2v1h-2zM4 3h1v1h-1zM0 4h1v1h-1zM0 5h1v1h-1zM0 6h1v1h-1z"/><path id="c73" d="M1 2h3v1h-3zM0 3h1v1h-1zM1 4h3v1h-3zM4 5h1v1h-1zM0 6h4v1h-4z"/><path id="c74" d="M1 0h1v1h-1zM1 1h1v1h-1zM0 2h3v1h-3zM1 3h1v1h-1zM1 4h1v1h-1zM1 5h1v1h-1zM4 5h1v1h-1zM2 6h2v1h-2z"/><path id="c75" d="M0 2h1v1h-1zM4 2h1v1h-1zM0 3h1v1h-1zM4 3h1v1h-1zM0 4h1v1h-1zM4 4h1v1h-1zM0 5h1v1h-1zM3 5h2v1h-2zM1 6h2v1h-2zM4 6h1v1h-1z"/><path id="c78" d="M0 2h1v1h-1zM4 2h1v1h-1zM1 3h1v1h-1zM3 3h1v1h-1zM2 4h1v1h-1zM1 5h1v1h-1zM3 5h1v1h-1zM0 6h1v1h-1zM4 6h1v1h-1z"/><path id="c79" d="M0 2h1v1h-1zM4 2h1v1h-1zM0 3h1v1h-1zM4 3h1v1h-1zM0 4h1v1h-1zM4 4h1v1h-1zM1 5h4v1h-4zM4 6h1v1h-1zM1 7h3v1h-3z"/></defs><path d="M8 0H392V4H396V8H400V456H396V460H392V464H8V460H4V456H0V8H4V4H8Z" fill="#150a17"/><path d="M8 0H388V4H392V8H396V452H392V456H388V460H8V456H4V452H0V8H4V4H8Z" transform="translate(2 2)" fill="none" stroke="#4a2045" stroke-width="2"/><path d="M8 0H364V4H368V8H372V428H368V432H364V436H8V432H4V428H0V8H4V4H8Z" transform="translate(14 14)" fill="none" stroke="#4a2045" stroke-width="2"/><rect x="134" y="6" width="130" height="18" fill="#150a17"/><g fill="#fff1e0" transform="translate(146 8) scale(2)"><use href="#c45" x="0"/><use href="#c78" x="6"/><use href="#c63" x="12"/><use href="#c68" x="18"/><use href="#c61" x="24"/><use href="#c6e" x="30"/><use href="#c67" x="36"/><use href="#c65" x="42"/><use href="#c73" x="48"/></g><g fill="#a87896" transform="translate(50 38) scale(2)"><use href="#c54" x="0"/><use href="#c72" x="6"/><use href="#c61" x="12"/><use href="#c64" x="18"/><use href="#c69" x="24"/><use href="#c6e" x="30"/><use href="#c67" x="36"/><use href="#c26" x="48"/><use href="#c61" x="60"/><use href="#c72" x="66"/><use href="#c62" x="72"/><use href="#c69" x="78"/><use href="#c74" x="84"/><use href="#c72" x="90"/><use href="#c61" x="96"/><use href="#c67" x="102"/><use href="#c65" x="108"/><use href="#c69" x="120"/><use href="#c6e" x="126"/><use href="#c66" x="132"/><use href="#c72" x="138"/><use href="#c61" x="144"/></g><path d="M4 0H166V2H168V4H170V58H168V60H166V62H4V60H2V58H0V4H2V2H4Z" transform="translate(23 67)" fill="#1e1020" stroke="#4a2045" stroke-width="2"/><g transform="translate(30 74) scale(2)"><path fill="#002f93" d="M2 0h7v1h-7zM15 0h7v1h-7zM1 1h5v1h-5zM18 1h5v1h-5zM0 2h5v1h-5zM19 2h5v1h-5zM0 3h4v1h-4zM20 3h4v1h-4zM0 4h3v1h-3zM21 4h3v1h-3zM0 5h2v1h-2zM22 5h2v1h-2zM0 6h1v1h-1zM10 6h4v1h-4zM23 6h1v1h-1zM0 7h1v1h-1zM8 7h8v1h-8zM23 7h1v1h-1zM0 8h1v1h-1zM7 8h10v1h-10zM23 8h1v1h-1zM7 9h10v1h-10zM6 10h12v1h-12zM6 11h18v1h-18zM6 12h18v1h-18zM6 13h12v1h-12zM7 14h10v1h-10zM0 15h1v1h-1zM7 15h10v1h-10zM23 15h1v1h-1zM0 16h1v1h-1zM8 16h8v1h-8zM23 16h1v1h-1zM0 17h1v1h-1zM10 17h4v1h-4zM22 17h2v1h-2zM0 18h2v1h-2zM22 18h2v1h-2zM0 19h3v1h-3zM21 19h3v1h-3zM0 20h4v1h-4zM20 20h4v1h-4zM0 21h5v1h-5zM19 21h5v1h-5zM1 22h5v1h-5zM17 22h6v1h-6zM2 23h7v1h-7zM15 23h7v1h-7z"/><path fill="#0051fb" d="M9 0h1v1h-1zM14 0h1v1h-1zM6 1h1v1h-1zM17 1h1v1h-1zM9 6h1v1h-1zM14 6h1v1h-1zM22 6h1v1h-1zM6 9h1v1h-1zM23 9h1v1h-1zM23 14h1v1h-1zM1 17h1v1h-1zM9 17h1v1h-1zM6 22h1v1h-1zM10 23h1v1h-1zM13 23h1v1h-1z"/><path fill="#0052ff" d="M10 0h4v1h-4zM7 1h10v1h-10zM5 2h14v1h-14zM4 3h16v1h-16zM3 4h18v1h-18zM2 5h20v1h-20zM1 6h8v1h-8zM15 6h7v1h-7zM1 7h7v1h-7zM16 7h7v1h-7zM1 8h6v1h-6zM17 8h6v1h-6zM0 9h6v1h-6zM17 9h6v1h-6zM0 10h6v1h-6zM18 10h6v1h-6zM0 11h6v1h-6zM0 12h6v1h-6zM0 13h6v1h-6zM18 13h6v1h-6zM0 14h7v1h-7zM17 14h6v1h-6zM1 15h6v1h-6zM17 15h6v1h-6zM1 16h7v1h-7zM16 16h7v1h-7zM2 17h7v1h-7zM14 17h8v1h-8zM2 18h20v1h-20zM3 19h18v1h-18zM4 20h16v1h-16zM5 21h14v1h-14zM7 22h10v1h-10zM11 23h2v1h-2z"/><path fill="#0144d3" d="M9 23h1v1h-1zM14 23h1v1h-1z"/></g><g fill="#f2d8c9" transform="translate(88 91) scale(2)"><use href="#c43" x="0"/><use href="#c6f" x="6"/><use href="#c69" x="12"/><use href="#c6e" x="18"/><use href="#c62" x="24"/><use href="#c61" x="30"/><use href="#c73" x="36"/><use href="#c65" x="42"/></g><rect class="led" style="animation-duration:0.70s;animation-delay:0.00s" x="180" y="74" width="6" height="6" fill="#e55273"/><path d="M4 0H166V2H168V4H170V58H168V60H166V62H4V60H2V58H0V4H2V2H4Z" transform="translate(207 67)" fill="#1e1020" stroke="#4a2045" stroke-width="2"/><g transform="translate(214 74) scale(2)"><path fill="#080705" d="M2 0h8v1h-8zM11 0h1v1h-1zM1 1h10v1h-10zM1 2h1v1h-1zM3 2h8v1h-8zM2 3h8v1h-8zM0 4h1v1h-1zM2 4h8v1h-8zM3 5h1v1h-1zM5 5h3v1h-3zM2 6h1v1h-1zM4 6h1v1h-1zM6 6h2v1h-2zM2 7h1v1h-1zM4 7h2v1h-2zM5 8h1v1h-1zM12 8h1v1h-1zM18 8h1v1h-1zM4 9h1v1h-1zM6 9h1v1h-1zM10 9h2v1h-2zM13 9h1v1h-1zM3 10h1v1h-1zM6 10h2v1h-2zM9 10h1v1h-1zM17 10h1v1h-1zM2 11h1v1h-1zM7 11h1v1h-1zM9 11h1v1h-1zM15 11h2v1h-2zM7 12h1v1h-1zM9 12h1v1h-1zM15 12h1v1h-1zM3 13h1v1h-1zM6 13h1v1h-1zM9 13h1v1h-1zM14 13h1v1h-1zM17 13h1v1h-1zM21 13h1v1h-1zM4 14h1v1h-1zM6 14h1v1h-1zM11 14h3v1h-3zM18 14h1v1h-1zM11 15h2v1h-2zM18 15h3v1h-3zM18 16h3v1h-3zM22 16h1v1h-1zM7 17h1v1h-1zM17 17h5v1h-5zM16 18h6v1h-6zM23 18h1v1h-1zM9 19h1v1h-1zM15 19h9v1h-9zM15 20h1v1h-1zM17 20h7v1h-7zM11 21h1v1h-1zM14 21h1v1h-1zM16 21h8v1h-8zM18 22h1v1h-1zM20 22h3v1h-3zM13 23h1v1h-1zM15 23h1v1h-1zM17 23h5v1h-5z"/><path fill="#100e0b" d="M10 0h1v1h-1zM12 0h10v1h-10zM11 1h12v1h-12zM11 2h13v1h-13zM10 3h1v1h-1zM14 3h10v1h-10zM14 4h10v1h-10zM8 5h1v1h-1zM16 5h8v1h-8zM16 6h8v1h-8zM6 7h1v1h-1zM18 7h6v1h-6zM11 8h1v1h-1zM19 8h5v1h-5zM12 9h1v1h-1zM17 9h7v1h-7zM10 10h1v1h-1zM13 10h2v1h-2zM16 10h1v1h-1zM20 10h4v1h-4zM14 11h1v1h-1zM22 11h2v1h-2zM2 12h1v1h-1zM14 12h1v1h-1zM16 12h1v1h-1zM22 12h2v1h-2zM10 13h1v1h-1zM13 13h1v1h-1zM16 13h1v1h-1zM20 13h1v1h-1zM22 13h2v1h-2zM17 14h1v1h-1zM19 14h5v1h-5zM21 15h3v1h-3zM6 16h1v1h-1zM21 16h1v1h-1zM23 16h1v1h-1zM16 17h1v1h-1zM22 17h2v1h-2zM8 18h1v1h-1zM22 18h1v1h-1zM14 19h1v1h-1zM10 20h1v1h-1zM13 20h1v1h-1zM12 21h1v1h-1z"/><path fill="#030302" d="M0 2h1v1h-1zM2 2h1v1h-1zM0 3h2v1h-2zM1 4h1v1h-1zM0 5h3v1h-3zM4 5h1v1h-1zM0 6h2v1h-2zM3 6h1v1h-1zM5 6h1v1h-1zM0 7h2v1h-2zM3 7h1v1h-1zM0 8h5v1h-5zM0 9h4v1h-4zM5 9h1v1h-1zM0 10h3v1h-3zM0 11h2v1h-2zM8 11h1v1h-1zM0 12h2v1h-2zM8 12h1v1h-1zM0 13h3v1h-3zM7 13h1v1h-1zM0 14h4v1h-4zM5 14h1v1h-1zM10 14h1v1h-1zM0 15h6v1h-6zM0 16h6v1h-6zM0 17h7v1h-7zM0 18h8v1h-8zM0 19h9v1h-9zM0 20h10v1h-10zM14 20h1v1h-1zM16 20h1v1h-1zM0 21h11v1h-11zM13 21h1v1h-1zM15 21h1v1h-1zM1 22h17v1h-17zM19 22h1v1h-1zM2 23h11v1h-11zM14 23h1v1h-1zM16 23h1v1h-1z"/><path fill="#9b8041" d="M11 3h2v1h-2zM10 4h1v1h-1zM13 4h1v1h-1zM9 5h1v1h-1zM14 5h1v1h-1zM8 6h1v1h-1zM15 6h1v1h-1zM7 7h1v1h-1zM11 7h1v1h-1zM16 7h1v1h-1zM9 9h1v1h-1zM16 9h1v1h-1zM4 10h1v1h-1zM12 10h1v1h-1zM19 10h1v1h-1zM13 11h1v1h-1zM20 11h1v1h-1zM3 12h1v1h-1zM10 12h1v1h-1zM13 12h1v1h-1zM20 12h1v1h-1zM4 13h2v1h-2zM12 13h1v1h-1zM19 13h1v1h-1zM16 14h1v1h-1zM7 16h1v1h-1zM16 16h1v1h-1zM8 17h1v1h-1zM15 17h1v1h-1zM9 18h1v1h-1zM14 18h1v1h-1zM10 19h1v1h-1zM13 19h1v1h-1zM11 20h2v1h-2z"/><path fill="#2d1d0b" d="M13 3h1v1h-1zM15 5h1v1h-1zM17 7h1v1h-1zM21 11h1v1h-1zM21 12h1v1h-1zM8 13h1v1h-1zM15 13h1v1h-1zM17 16h1v1h-1zM15 18h1v1h-1z"/><path fill="#e9ba46" d="M11 4h2v1h-2zM10 5h4v1h-4zM9 6h6v1h-6zM8 7h3v1h-3zM13 7h3v1h-3zM7 8h3v1h-3zM14 8h3v1h-3zM8 9h1v1h-1zM15 9h1v1h-1zM4 11h2v1h-2zM11 11h2v1h-2zM18 11h2v1h-2zM4 12h2v1h-2zM11 12h2v1h-2zM18 12h2v1h-2zM8 14h1v1h-1zM15 14h1v1h-1zM7 15h3v1h-3zM14 15h3v1h-3zM8 16h3v1h-3zM13 16h3v1h-3zM9 17h6v1h-6zM10 18h4v1h-4zM11 19h2v1h-2z"/><path fill="#7d642e" d="M12 7h1v1h-1zM10 8h1v1h-1zM17 8h1v1h-1zM7 9h1v1h-1zM14 9h1v1h-1zM5 10h1v1h-1zM11 10h1v1h-1zM3 11h1v1h-1zM6 11h1v1h-1zM10 11h1v1h-1zM6 12h1v1h-1zM11 13h1v1h-1zM18 13h1v1h-1zM7 14h1v1h-1zM9 14h1v1h-1zM10 15h1v1h-1zM17 15h1v1h-1zM11 16h1v1h-1z"/><path fill="#5f4a20" d="M6 8h1v1h-1zM13 8h1v1h-1zM8 10h1v1h-1zM15 10h1v1h-1zM18 10h1v1h-1zM17 11h1v1h-1zM17 12h1v1h-1zM14 14h1v1h-1zM6 15h1v1h-1zM13 15h1v1h-1zM12 16h1v1h-1z"/></g><g fill="#f2d8c9" transform="translate(272 91) scale(2)"><use href="#c42" x="0"/><use href="#c69" x="6"/><use href="#c6e" x="12"/><use href="#c61" x="18"/><use href="#c6e" x="24"/><use href="#c63" x="30"/><use href="#c65" x="36"/></g><rect class="led" style="animation-duration:1.07s;animation-delay:0.13s" x="364" y="74" width="6" height="6" fill="#e55273"/><path d="M4 0H166V2H168V4H170V58H168V60H166V62H4V60H2V58H0V4H2V2H4Z" transform="translate(23 143)" fill="#1e1020" stroke="#4a2045" stroke-width="2"/><g transform="translate(30 150) scale(2)"><path fill="#5842d9" d="M2 0h20v1h-20zM1 1h22v1h-22zM0 2h24v1h-24zM0 3h24v1h-24zM0 4h8v1h-8zM16 4h8v1h-8zM0 5h6v1h-6zM18 5h6v1h-6zM0 6h6v1h-6zM18 6h6v1h-6zM0 7h4v1h-4zM20 7h4v1h-4zM0 8h4v1h-4zM20 8h4v1h-4zM0 9h4v1h-4zM20 9h4v1h-4zM0 10h4v1h-4zM20 10h4v1h-4zM0 11h4v1h-4zM20 11h4v1h-4zM0 12h4v1h-4zM20 12h4v1h-4zM0 13h4v1h-4zM20 13h4v1h-4zM0 14h4v1h-4zM20 14h4v1h-4zM0 15h4v1h-4zM20 15h4v1h-4zM0 16h4v1h-4zM16 16h1v1h-1zM20 16h4v1h-4zM0 17h24v1h-24zM0 18h24v1h-24zM0 19h24v1h-24zM0 20h24v1h-24zM0 21h24v1h-24zM1 22h22v1h-22zM2 23h20v1h-20z"/><path fill="#5847c5" d="M8 4h1v1h-1zM15 4h1v1h-1zM6 5h1v1h-1zM17 5h1v1h-1zM4 7h1v1h-1zM19 7h1v1h-1zM7 12h1v1h-1zM11 12h2v1h-2zM16 12h1v1h-1zM7 13h1v1h-1zM11 13h2v1h-2zM16 13h1v1h-1zM7 14h1v1h-1zM11 14h2v1h-2zM16 14h1v1h-1zM7 15h1v1h-1zM11 15h2v1h-2zM16 15h1v1h-1zM7 16h1v1h-1zM11 16h2v1h-2z"/><path fill="#938add" d="M9 4h1v1h-1zM14 4h1v1h-1zM7 5h1v1h-1zM16 5h1v1h-1zM5 7h1v1h-1zM18 7h1v1h-1zM7 11h1v1h-1zM11 11h2v1h-2zM16 11h1v1h-1zM6 12h1v1h-1zM8 12h1v1h-1zM15 12h1v1h-1zM17 12h1v1h-1zM6 13h1v1h-1zM8 13h1v1h-1zM15 13h1v1h-1zM17 13h1v1h-1zM6 14h1v1h-1zM8 14h1v1h-1zM15 14h1v1h-1zM17 14h1v1h-1zM6 15h1v1h-1zM8 15h1v1h-1zM15 15h1v1h-1zM17 15h1v1h-1zM8 16h1v1h-1zM15 16h1v1h-1z"/><path fill="#bcb5e6" d="M10 4h4v1h-4zM6 6h1v1h-1zM17 6h1v1h-1zM4 9h1v1h-1zM19 9h1v1h-1zM6 11h1v1h-1zM17 11h1v1h-1zM10 16h1v1h-1zM13 16h1v1h-1z"/><path fill="#f5f0fc" d="M8 5h1v1h-1zM15 5h1v1h-1zM5 8h1v1h-1zM18 8h1v1h-1zM4 11h1v1h-1zM19 11h1v1h-1zM5 16h1v1h-1zM9 16h1v1h-1zM14 16h1v1h-1zM18 16h1v1h-1z"/><path fill="#fffeff" d="M9 5h6v1h-6zM7 6h10v1h-10zM6 7h12v1h-12zM6 8h12v1h-12zM5 9h14v1h-14zM5 10h14v1h-14zM5 11h1v1h-1zM9 11h2v1h-2zM13 11h2v1h-2zM18 11h1v1h-1zM4 12h2v1h-2zM9 12h1v1h-1zM14 12h1v1h-1zM18 12h2v1h-2zM4 13h2v1h-2zM9 13h1v1h-1zM14 13h1v1h-1zM18 13h2v1h-2zM4 14h2v1h-2zM9 14h1v1h-1zM14 14h1v1h-1zM18 14h2v1h-2zM4 15h2v1h-2zM9 15h1v1h-1zM14 15h1v1h-1zM18 15h2v1h-2z"/><path fill="#6656d3" d="M4 8h1v1h-1zM19 8h1v1h-1zM6 16h1v1h-1zM17 16h1v1h-1z"/><path fill="#e0d9f4" d="M4 10h1v1h-1zM19 10h1v1h-1zM8 11h1v1h-1zM15 11h1v1h-1zM10 12h1v1h-1zM13 12h1v1h-1zM10 13h1v1h-1zM13 13h1v1h-1zM10 14h1v1h-1zM13 14h1v1h-1zM10 15h1v1h-1zM13 15h1v1h-1zM4 16h1v1h-1zM19 16h1v1h-1z"/></g><g fill="#f2d8c9" transform="translate(88 167) scale(2)"><use href="#c4b" x="0"/><use href="#c72" x="6"/><use href="#c61" x="12"/><use href="#c6b" x="18"/><use href="#c65" x="24"/><use href="#c6e" x="30"/></g><rect class="led" style="animation-duration:1.44s;animation-delay:0.26s" x="180" y="150" width="6" height="6" fill="#e55273"/><path d="M4 0H166V2H168V4H170V58H168V60H166V62H4V60H2V58H0V4H2V2H4Z" transform="translate(207 143)" fill="#1e1020" stroke="#4a2045" stroke-width="2"/><g transform="translate(214 150) scale(2)"><path fill="#ffffff" d="M2 0h20v1h-20zM1 1h22v1h-22zM0 2h24v1h-24zM0 3h24v1h-24zM0 4h24v1h-24zM0 5h5v1h-5zM10 5h4v1h-4zM19 5h5v1h-5zM0 6h5v1h-5zM10 6h4v1h-4zM19 6h5v1h-5zM0 7h5v1h-5zM10 7h4v1h-4zM19 7h5v1h-5zM0 8h5v1h-5zM10 8h4v1h-4zM19 8h5v1h-5zM0 9h5v1h-5zM19 9h5v1h-5zM0 10h9v1h-9zM15 10h9v1h-9zM0 11h9v1h-9zM15 11h9v1h-9zM0 12h9v1h-9zM15 12h9v1h-9zM0 13h9v1h-9zM15 13h9v1h-9zM0 14h5v1h-5zM19 14h5v1h-5zM0 15h5v1h-5zM10 15h4v1h-4zM19 15h5v1h-5zM0 16h5v1h-5zM10 16h4v1h-4zM19 16h5v1h-5zM0 17h5v1h-5zM10 17h4v1h-4zM19 17h5v1h-5zM0 18h5v1h-5zM10 18h4v1h-4zM19 18h5v1h-5zM0 19h24v1h-24zM0 20h24v1h-24zM0 21h24v1h-24zM1 22h22v1h-22zM2 23h20v1h-20z"/><path fill="#717171" d="M5 5h1v1h-1zM9 5h1v1h-1zM14 5h1v1h-1zM18 5h1v1h-1zM5 9h1v1h-1zM18 9h1v1h-1zM5 14h1v1h-1zM18 14h1v1h-1zM5 18h1v1h-1zM9 18h1v1h-1zM14 18h1v1h-1z"/><path fill="#3c3c3c" d="M6 5h3v1h-3zM15 5h3v1h-3zM5 6h1v1h-1zM18 6h1v1h-1zM5 7h1v1h-1zM18 7h1v1h-1zM5 8h1v1h-1zM18 8h1v1h-1zM5 15h1v1h-1zM18 15h1v1h-1zM5 16h1v1h-1zM18 16h1v1h-1zM5 17h1v1h-1zM18 17h1v1h-1zM6 18h3v1h-3zM15 18h3v1h-3z"/><path fill="#000000" d="M6 6h3v1h-3zM15 6h3v1h-3zM6 7h3v1h-3zM15 7h3v1h-3zM6 8h3v1h-3zM15 8h3v1h-3zM10 10h4v1h-4zM10 11h4v1h-4zM10 12h4v1h-4zM10 13h4v1h-4zM6 15h3v1h-3zM15 15h3v1h-3zM6 16h3v1h-3zM15 16h3v1h-3zM6 17h3v1h-3zM15 17h3v1h-3z"/><path fill="#414141" d="M9 6h1v1h-1zM14 6h1v1h-1zM9 7h1v1h-1zM14 7h1v1h-1zM9 8h1v1h-1zM14 8h1v1h-1zM6 9h3v1h-3zM15 9h3v1h-3zM6 14h3v1h-3zM15 14h3v1h-3zM9 15h1v1h-1zM14 15h1v1h-1zM9 16h1v1h-1zM14 16h1v1h-1zM9 17h1v1h-1zM14 17h1v1h-1z"/><path fill="#6b6b6b" d="M9 9h1v1h-1zM14 9h1v1h-1zM9 14h1v1h-1zM14 14h1v1h-1zM18 18h1v1h-1z"/><path fill="#c1c1c1" d="M10 9h4v1h-4zM9 10h1v1h-1zM9 11h1v1h-1zM9 12h1v1h-1zM9 13h1v1h-1z"/><path fill="#bbbbbb" d="M14 10h1v1h-1zM14 11h1v1h-1zM14 12h1v1h-1zM14 13h1v1h-1zM10 14h4v1h-4z"/></g><g fill="#f2d8c9" transform="translate(272 167) scale(2)"><use href="#c4f" x="0"/><use href="#c4b" x="6"/><use href="#c58" x="12"/></g><rect class="led" style="animation-duration:0.71s;animation-delay:0.39s" x="364" y="150" width="6" height="6" fill="#e55273"/><path d="M4 0H166V2H168V4H170V58H168V60H166V62H4V60H2V58H0V4H2V2H4Z" transform="translate(23 219)" fill="#1e1020" stroke="#4a2045" stroke-width="2"/><g transform="translate(30 226) scale(2)"><path fill="#71eaf8" d="M2 0h2v1h-2zM1 1h1v1h-1zM8 4h1v1h-1zM21 4h1v1h-1zM13 5h1v1h-1zM18 5h2v1h-2zM6 6h1v1h-1zM14 6h1v1h-1zM16 6h1v1h-1zM11 7h1v1h-1zM4 8h1v1h-1zM9 9h2v1h-2zM15 9h1v1h-1zM4 10h1v1h-1zM10 10h1v1h-1zM16 10h1v1h-1zM5 11h1v1h-1zM11 11h1v1h-1zM17 11h1v1h-1zM1 12h1v1h-1zM3 12h2v1h-2zM6 12h1v1h-1zM12 12h1v1h-1zM18 12h1v1h-1zM0 13h2v1h-2zM7 13h1v1h-1zM12 13h2v1h-2zM19 13h1v1h-1zM9 14h3v1h-3zM19 14h1v1h-1zM12 15h1v1h-1zM18 15h1v1h-1zM17 16h1v1h-1zM10 17h1v1h-1zM16 17h4v1h-4zM15 18h2v1h-2zM9 19h1v1h-1zM14 19h1v1h-1zM7 23h1v1h-1z"/><path fill="#6dedfc" d="M4 0h18v1h-18zM2 1h21v1h-21zM0 2h23v1h-23zM0 3h23v1h-23zM0 4h8v1h-8zM14 4h7v1h-7zM22 4h1v1h-1zM0 5h8v1h-8zM14 5h4v1h-4zM20 5h3v1h-3zM0 6h6v1h-6zM12 6h2v1h-2zM15 6h1v1h-1zM17 6h6v1h-6zM0 7h6v1h-6zM12 7h11v1h-11zM0 8h4v1h-4zM10 8h13v1h-13zM0 9h4v1h-4zM16 9h7v1h-7zM0 10h4v1h-4zM17 10h6v1h-6zM0 11h5v1h-5zM18 11h5v1h-5zM0 12h1v1h-1zM2 12h1v1h-1zM5 12h1v1h-1zM19 12h4v1h-4zM2 13h5v1h-5zM20 13h3v1h-3zM0 14h9v1h-9zM12 14h2v1h-2zM20 14h3v1h-3zM0 15h12v1h-12zM19 15h4v1h-4zM0 16h12v1h-12zM18 16h5v1h-5zM0 17h10v1h-10zM20 17h3v1h-3zM0 18h10v1h-10zM17 18h6v1h-6zM0 19h9v1h-9zM15 19h8v1h-8zM0 20h23v1h-23zM0 21h23v1h-23zM1 22h22v1h-22zM2 23h5v1h-5zM8 23h14v1h-14z"/><path fill="#71effd" d="M23 2h1v1h-1zM23 3h1v1h-1zM23 4h1v1h-1zM23 5h1v1h-1zM23 6h1v1h-1zM23 7h1v1h-1zM23 8h1v1h-1zM23 9h1v1h-1zM23 10h1v1h-1zM23 11h1v1h-1zM23 12h1v1h-1zM23 13h1v1h-1zM23 14h1v1h-1zM23 15h1v1h-1zM23 16h1v1h-1zM23 17h1v1h-1zM23 18h1v1h-1zM23 19h1v1h-1zM23 20h1v1h-1zM23 21h1v1h-1z"/><path fill="#327981" d="M9 4h1v1h-1zM8 5h1v1h-1zM7 6h1v1h-1zM6 7h1v1h-1zM5 8h1v1h-1zM9 8h1v1h-1zM8 9h1v1h-1zM12 9h2v1h-2zM18 13h1v1h-1zM18 14h1v1h-1zM16 16h1v1h-1zM10 19h4v1h-4z"/><path fill="#031114" d="M10 4h3v1h-3zM9 5h1v1h-1zM10 6h1v1h-1zM7 7h1v1h-1zM8 8h1v1h-1zM5 9h1v1h-1zM8 10h1v1h-1zM12 10h1v1h-1zM7 11h1v1h-1zM9 11h1v1h-1zM13 11h1v1h-1zM10 12h1v1h-1zM14 12h1v1h-1zM16 12h1v1h-1zM9 13h3v1h-3zM15 13h1v1h-1zM15 14h1v1h-1zM14 15h1v1h-1zM16 15h1v1h-1zM13 16h1v1h-1zM12 17h1v1h-1zM14 17h1v1h-1zM11 18h1v1h-1z"/><path fill="#5facb4" d="M13 4h1v1h-1zM12 5h1v1h-1zM11 6h1v1h-1zM10 7h1v1h-1zM4 9h1v1h-1zM11 9h1v1h-1zM14 9h1v1h-1zM9 10h1v1h-1zM11 10h1v1h-1zM10 11h1v1h-1zM12 11h1v1h-1zM11 12h1v1h-1zM13 12h1v1h-1zM14 13h1v1h-1zM14 14h1v1h-1zM13 15h1v1h-1zM12 16h1v1h-1zM11 17h1v1h-1zM10 18h1v1h-1z"/><path fill="#010202" d="M10 5h2v1h-2zM8 6h2v1h-2zM8 7h2v1h-2zM6 8h2v1h-2zM6 9h2v1h-2zM6 10h2v1h-2zM13 10h2v1h-2zM8 11h1v1h-1zM14 11h2v1h-2zM8 12h2v1h-2zM15 12h1v1h-1zM16 13h2v1h-2zM16 14h2v1h-2zM15 15h1v1h-1zM14 16h2v1h-2zM13 17h1v1h-1zM12 18h2v1h-2z"/><path fill="#1f484d" d="M5 10h1v1h-1zM15 10h1v1h-1zM6 11h1v1h-1zM16 11h1v1h-1zM7 12h1v1h-1zM17 12h1v1h-1zM8 13h1v1h-1zM17 15h1v1h-1zM15 17h1v1h-1zM14 18h1v1h-1z"/></g><g fill="#f2d8c9" transform="translate(88 243) scale(2)"><use href="#c42" x="0"/><use href="#c69" x="6"/><use href="#c74" x="12"/><use href="#c67" x="18"/><use href="#c65" x="24"/><use href="#c74" x="30"/></g><rect class="led" style="animation-duration:1.08s;animation-delay:0.52s" x="180" y="226" width="6" height="6" fill="#e55273"/><path d="M4 0H166V2H168V4H170V58H168V60H166V62H4V60H2V58H0V4H2V2H4Z" transform="translate(207 219)" fill="#1e1020" stroke="#4a2045" stroke-width="2"/><g transform="translate(214 226) scale(2)"><path fill="#ffffff" d="M2 0h20v1h-20zM1 1h22v1h-22zM0 2h24v1h-24zM0 3h24v1h-24zM0 4h11v1h-11zM13 4h11v1h-11zM0 5h8v1h-8zM13 5h11v1h-11zM0 6h7v1h-7zM13 6h11v1h-11zM0 7h6v1h-6zM13 7h11v1h-11zM0 8h5v1h-5zM17 8h7v1h-7zM0 9h5v1h-5zM10 9h2v1h-2zM17 9h7v1h-7zM0 10h5v1h-5zM9 10h3v1h-3zM17 10h7v1h-7zM0 11h5v1h-5zM9 11h3v1h-3zM17 11h7v1h-7zM0 12h5v1h-5zM9 12h7v1h-7zM20 12h4v1h-4zM0 13h5v1h-5zM9 13h6v1h-6zM20 13h4v1h-4zM0 14h5v1h-5zM10 14h5v1h-5zM20 14h4v1h-4zM0 15h5v1h-5zM19 15h5v1h-5zM0 16h6v1h-6zM19 16h5v1h-5zM0 17h7v1h-7zM18 17h6v1h-6zM0 18h8v1h-8zM16 18h8v1h-8zM0 19h11v1h-11zM14 19h10v1h-10zM0 20h24v1h-24zM0 21h24v1h-24zM1 22h22v1h-22zM2 23h20v1h-20z"/><path fill="#eaf6fc" d="M11 4h2v1h-2zM8 5h1v1h-1zM5 8h1v1h-1zM11 8h1v1h-1zM16 8h1v1h-1zM16 9h1v1h-1zM16 10h1v1h-1zM16 11h1v1h-1zM15 13h1v1h-1zM19 14h1v1h-1zM5 15h1v1h-1zM11 15h2v1h-2zM18 16h1v1h-1zM17 17h1v1h-1zM8 18h1v1h-1zM11 19h3v1h-3z"/><path fill="#81b4ff" d="M9 5h1v1h-1zM10 8h1v1h-1zM5 9h1v1h-1zM19 12h1v1h-1zM5 14h1v1h-1zM10 15h1v1h-1zM18 15h1v1h-1zM9 18h1v1h-1zM15 18h1v1h-1z"/><path fill="#066cff" d="M10 5h1v1h-1zM8 6h1v1h-1zM7 7h1v1h-1zM6 8h1v1h-1zM9 8h1v1h-1zM16 13h1v1h-1zM18 14h1v1h-1zM6 15h1v1h-1zM9 15h1v1h-1zM7 16h1v1h-1zM8 17h1v1h-1zM10 18h1v1h-1z"/><path fill="#0068ff" d="M11 5h1v1h-1zM9 6h3v1h-3zM8 7h4v1h-4zM7 8h2v1h-2zM6 9h3v1h-3zM6 10h2v1h-2zM6 11h2v1h-2zM6 12h2v1h-2zM17 12h2v1h-2zM6 13h2v1h-2zM17 13h2v1h-2zM6 14h3v1h-3zM16 14h2v1h-2zM7 15h2v1h-2zM15 15h3v1h-3zM8 16h9v1h-9zM9 17h7v1h-7zM11 18h3v1h-3z"/><path fill="#afd0ff" d="M12 5h1v1h-1zM7 6h1v1h-1zM12 6h1v1h-1zM6 7h1v1h-1zM12 7h1v1h-1zM9 9h1v1h-1zM8 11h1v1h-1zM8 12h1v1h-1zM19 13h1v1h-1zM9 14h1v1h-1zM13 15h1v1h-1zM6 16h1v1h-1zM7 17h1v1h-1z"/><path fill="#4fe6b4" d="M12 8h4v1h-4zM12 9h4v1h-4zM12 10h4v1h-4zM12 11h4v1h-4z"/><path fill="#3888ff" d="M5 10h1v1h-1zM8 10h1v1h-1zM5 11h1v1h-1zM5 12h1v1h-1zM16 12h1v1h-1zM5 13h1v1h-1zM8 13h1v1h-1zM15 14h1v1h-1zM14 15h1v1h-1zM17 16h1v1h-1zM16 17h1v1h-1zM14 18h1v1h-1z"/></g><g fill="#f2d8c9" transform="translate(272 243) scale(2)"><use href="#c47" x="0"/><use href="#c61" x="6"/><use href="#c74" x="12"/><use href="#c65" x="18"/><use href="#c2e" x="24"/><use href="#c69" x="30"/><use href="#c6f" x="36"/></g><rect class="led" style="animation-duration:1.45s;animation-delay:0.65s" x="364" y="226" width="6" height="6" fill="#e55273"/><path d="M4 0H166V2H168V4H170V58H168V60H166V62H4V60H2V58H0V4H2V2H4Z" transform="translate(23 295)" fill="#1e1020" stroke="#4a2045" stroke-width="2"/><g transform="translate(30 302) scale(2)"><path fill="#282b39" d="M2 0h6v1h-6zM4 1h11v1h-11zM0 2h1v1h-1zM5 2h11v1h-11zM6 3h11v1h-11zM7 4h11v1h-11zM8 5h11v1h-11zM9 6h11v1h-11zM10 7h11v1h-11zM11 8h5v1h-5zM18 8h4v1h-4zM13 9h3v1h-3zM18 9h5v1h-5zM15 10h1v1h-1zM22 10h1v1h-1zM15 11h1v1h-1zM22 11h2v1h-2zM18 12h1v1h-1zM21 12h3v1h-3zM15 13h1v1h-1zM18 13h1v1h-1zM21 13h3v1h-3zM6 14h1v1h-1zM18 14h1v1h-1zM21 14h3v1h-3zM9 15h1v1h-1zM21 15h3v1h-3zM20 16h4v1h-4zM21 17h3v1h-3zM22 18h2v1h-2zM23 19h1v1h-1zM23 20h1v1h-1zM23 21h1v1h-1z"/><path fill="#2d303d" d="M8 0h14v1h-14zM15 1h8v1h-8zM16 2h8v1h-8zM17 3h7v1h-7zM18 4h6v1h-6zM19 5h5v1h-5zM20 6h4v1h-4zM21 7h3v1h-3zM17 8h1v1h-1zM22 8h2v1h-2zM17 9h1v1h-1zM23 9h1v1h-1zM23 10h1v1h-1zM6 11h1v1h-1zM17 11h1v1h-1zM17 12h1v1h-1zM6 13h1v1h-1zM17 13h1v1h-1zM5 15h1v1h-1zM14 15h1v1h-1zM20 15h1v1h-1z"/><path fill="#1e2232" d="M1 1h3v1h-3zM1 2h4v1h-4zM0 3h6v1h-6zM0 4h7v1h-7zM0 5h8v1h-8zM0 6h9v1h-9zM0 7h10v1h-10zM0 8h11v1h-11zM0 9h13v1h-13zM0 10h2v1h-2zM8 10h1v1h-1zM0 11h2v1h-2zM0 12h2v1h-2zM6 12h1v1h-1zM10 12h1v1h-1zM15 12h1v1h-1zM0 13h2v1h-2zM7 13h1v1h-1zM10 13h1v1h-1zM0 14h2v1h-2zM7 14h1v1h-1zM10 14h1v1h-1zM15 14h3v1h-3zM0 15h2v1h-2zM6 15h2v1h-2zM10 15h1v1h-1zM15 15h4v1h-4zM0 16h20v1h-20zM0 17h21v1h-21zM0 18h22v1h-22zM0 19h23v1h-23zM0 20h23v1h-23zM0 21h23v1h-23zM1 22h22v1h-22zM2 23h20v1h-20z"/><path fill="#3d3f4a" d="M16 8h1v1h-1zM6 10h1v1h-1zM17 10h1v1h-1zM4 11h1v1h-1zM10 11h1v1h-1zM18 11h1v1h-1zM21 11h1v1h-1zM7 12h1v1h-1zM4 13h1v1h-1zM9 13h1v1h-1zM9 14h1v1h-1zM2 15h1v1h-1zM8 15h1v1h-1zM11 15h1v1h-1zM19 15h1v1h-1z"/><path fill="#b7a287" d="M16 9h1v1h-1zM11 10h1v1h-1zM16 10h1v1h-1zM3 11h1v1h-1zM16 11h1v1h-1zM9 12h1v1h-1zM14 12h1v1h-1zM16 12h1v1h-1zM3 13h1v1h-1zM16 13h1v1h-1zM4 14h1v1h-1z"/><path fill="#71737d" d="M2 10h1v1h-1zM5 10h1v1h-1zM9 10h2v1h-2zM14 10h1v1h-1zM21 10h1v1h-1zM2 11h1v1h-1zM8 11h1v1h-1zM12 11h2v1h-2zM20 11h1v1h-1zM2 12h1v1h-1zM20 12h1v1h-1zM2 13h1v1h-1zM12 13h2v1h-2zM20 13h1v1h-1zM2 14h1v1h-1zM20 14h1v1h-1zM3 15h2v1h-2zM12 15h2v1h-2z"/><path fill="#c4c5c9" d="M3 10h2v1h-2zM7 10h1v1h-1zM12 10h2v1h-2zM18 10h3v1h-3zM7 11h1v1h-1zM11 11h1v1h-1zM19 11h1v1h-1zM4 12h2v1h-2zM11 12h1v1h-1zM13 12h1v1h-1zM19 12h1v1h-1zM11 13h1v1h-1zM19 13h1v1h-1zM3 14h1v1h-1zM11 14h3v1h-3zM19 14h1v1h-1z"/><path fill="#e1e1e3" d="M5 11h1v1h-1zM9 11h1v1h-1zM14 11h1v1h-1zM3 12h1v1h-1zM8 12h1v1h-1zM12 12h1v1h-1zM5 13h1v1h-1zM8 13h1v1h-1zM14 13h1v1h-1zM5 14h1v1h-1zM8 14h1v1h-1zM14 14h1v1h-1z"/></g><g fill="#f2d8c9" transform="translate(88 319) scale(2)"><use href="#c42" x="0"/><use href="#c79" x="6"/><use href="#c62" x="12"/><use href="#c69" x="18"/><use href="#c74" x="24"/></g><rect class="led" style="animation-duration:0.72s;animation-delay:0.78s" x="180" y="302" width="6" height="6" fill="#e55273"/><path d="M4 0H166V2H168V4H170V58H168V60H166V62H4V60H2V58H0V4H2V2H4Z" transform="translate(207 295)" fill="#1e1020" stroke="#4a2045" stroke-width="2"/><g transform="translate(214 302) scale(2)"><path fill="#fefffe" d="M2 0h20v1h-20zM1 1h12v1h-12zM17 1h6v1h-6zM0 2h3v1h-3zM4 2h8v1h-8zM18 2h6v1h-6zM0 3h2v1h-2zM6 3h5v1h-5zM19 3h5v1h-5zM0 4h1v1h-1zM6 4h4v1h-4zM20 4h4v1h-4zM0 5h1v1h-1zM6 5h3v1h-3zM21 5h3v1h-3zM0 6h1v1h-1zM6 6h2v1h-2zM14 6h1v1h-1zM22 6h2v1h-2zM0 7h1v1h-1zM6 7h1v1h-1zM13 7h3v1h-3zM22 7h2v1h-2zM0 8h1v1h-1zM12 8h5v1h-5zM23 8h1v1h-1zM0 9h1v1h-1zM11 9h7v1h-7zM22 9h2v1h-2zM0 10h1v1h-1zM10 10h3v1h-3zM17 10h3v1h-3zM21 10h3v1h-3zM0 11h1v1h-1zM9 11h4v1h-4zM17 11h7v1h-7zM0 12h1v1h-1zM9 12h4v1h-4zM17 12h7v1h-7zM0 13h1v1h-1zM10 13h3v1h-3zM17 13h3v1h-3zM21 13h3v1h-3zM0 14h1v1h-1zM11 14h7v1h-7zM22 14h2v1h-2zM0 15h1v1h-1zM12 15h5v1h-5zM23 15h1v1h-1zM0 16h1v1h-1zM6 16h1v1h-1zM13 16h3v1h-3zM22 16h2v1h-2zM0 17h1v1h-1zM6 17h2v1h-2zM14 17h1v1h-1zM22 17h2v1h-2zM0 18h1v1h-1zM6 18h3v1h-3zM21 18h3v1h-3zM0 19h1v1h-1zM6 19h4v1h-4zM20 19h4v1h-4zM0 20h2v1h-2zM6 20h5v1h-5zM19 20h5v1h-5zM0 21h3v1h-3zM4 21h8v1h-8zM18 21h6v1h-6zM1 22h12v1h-12zM17 22h6v1h-6zM2 23h20v1h-20z"/><path fill="#83e2c2" d="M13 1h1v1h-1zM12 2h1v1h-1zM11 3h1v1h-1zM5 4h1v1h-1zM10 4h1v1h-1zM9 5h1v1h-1zM8 6h1v1h-1zM7 7h1v1h-1zM6 8h1v1h-1zM16 12h1v1h-1zM6 15h1v1h-1zM7 16h1v1h-1zM8 17h1v1h-1zM9 18h1v1h-1zM5 19h1v1h-1zM10 19h1v1h-1zM11 20h1v1h-1zM12 21h1v1h-1zM13 22h1v1h-1z"/><path fill="#28cd96" d="M14 1h1v1h-1zM13 2h3v1h-3zM3 3h1v1h-1zM12 3h5v1h-5zM2 4h3v1h-3zM11 4h7v1h-7zM2 5h3v1h-3zM10 5h4v1h-4zM16 5h3v1h-3zM2 6h3v1h-3zM9 6h4v1h-4zM17 6h3v1h-3zM2 7h3v1h-3zM8 7h4v1h-4zM18 7h3v1h-3zM2 8h3v1h-3zM7 8h4v1h-4zM19 8h3v1h-3zM2 9h3v1h-3zM6 9h4v1h-4zM20 9h1v1h-1zM2 10h7v1h-7zM2 11h6v1h-6zM14 11h2v1h-2zM2 12h6v1h-6zM14 12h2v1h-2zM2 13h7v1h-7zM2 14h3v1h-3zM6 14h4v1h-4zM20 14h1v1h-1zM2 15h3v1h-3zM7 15h4v1h-4zM19 15h3v1h-3zM2 16h3v1h-3zM8 16h4v1h-4zM18 16h3v1h-3zM2 17h3v1h-3zM9 17h4v1h-4zM17 17h3v1h-3zM2 18h3v1h-3zM10 18h4v1h-4zM16 18h3v1h-3zM2 19h3v1h-3zM11 19h7v1h-7zM3 20h1v1h-1zM12 20h5v1h-5zM13 21h3v1h-3zM14 22h1v1h-1z"/><path fill="#34cf9c" d="M15 1h1v1h-1zM16 2h1v1h-1zM4 3h1v1h-1zM17 3h1v1h-1zM18 4h1v1h-1zM15 5h1v1h-1zM19 5h1v1h-1zM16 6h1v1h-1zM20 6h1v1h-1zM17 7h1v1h-1zM21 7h1v1h-1zM18 8h1v1h-1zM5 9h1v1h-1zM19 9h1v1h-1zM14 10h1v1h-1zM13 11h1v1h-1zM13 12h1v1h-1zM5 14h1v1h-1zM19 14h1v1h-1zM18 15h1v1h-1zM17 16h1v1h-1zM21 16h1v1h-1zM16 17h1v1h-1zM20 17h1v1h-1zM15 18h1v1h-1zM19 18h1v1h-1zM18 19h1v1h-1zM4 20h1v1h-1zM17 20h1v1h-1zM16 21h1v1h-1zM15 22h1v1h-1z"/><path fill="#c4f2e2" d="M16 1h1v1h-1zM17 2h1v1h-1zM18 3h1v1h-1zM19 4h1v1h-1zM20 5h1v1h-1zM21 6h1v1h-1zM13 10h1v1h-1zM13 13h1v1h-1zM21 17h1v1h-1zM20 18h1v1h-1zM19 19h1v1h-1zM18 20h1v1h-1zM17 21h1v1h-1zM16 22h1v1h-1z"/><path fill="#d7f6ec" d="M3 2h1v1h-1zM5 3h1v1h-1zM1 4h1v1h-1zM1 5h1v1h-1zM1 6h1v1h-1zM15 6h1v1h-1zM1 7h1v1h-1zM16 7h1v1h-1zM1 8h1v1h-1zM17 8h1v1h-1zM22 8h1v1h-1zM1 9h1v1h-1zM18 9h1v1h-1zM1 10h1v1h-1zM16 10h1v1h-1zM20 10h1v1h-1zM1 11h1v1h-1zM1 12h1v1h-1zM1 13h1v1h-1zM16 13h1v1h-1zM20 13h1v1h-1zM1 14h1v1h-1zM18 14h1v1h-1zM1 15h1v1h-1zM17 15h1v1h-1zM22 15h1v1h-1zM1 16h1v1h-1zM16 16h1v1h-1zM1 17h1v1h-1zM15 17h1v1h-1zM1 18h1v1h-1zM1 19h1v1h-1zM5 20h1v1h-1zM3 21h1v1h-1z"/><path fill="#5fdab1" d="M2 3h1v1h-1zM14 5h1v1h-1zM13 6h1v1h-1zM12 7h1v1h-1zM11 8h1v1h-1zM10 9h1v1h-1zM9 10h1v1h-1zM15 10h1v1h-1zM8 11h1v1h-1zM8 12h1v1h-1zM9 13h1v1h-1zM14 13h2v1h-2zM10 14h1v1h-1zM11 15h1v1h-1zM12 16h1v1h-1zM13 17h1v1h-1zM14 18h1v1h-1zM2 20h1v1h-1z"/><path fill="#7ae0be" d="M5 5h1v1h-1zM5 6h1v1h-1zM5 7h1v1h-1zM5 8h1v1h-1zM21 9h1v1h-1zM16 11h1v1h-1zM21 14h1v1h-1zM5 15h1v1h-1zM5 16h1v1h-1zM5 17h1v1h-1zM5 18h1v1h-1z"/></g><g fill="#f2d8c9" transform="translate(272 319) scale(2)"><use href="#c4b" x="0"/><use href="#c75" x="6"/><use href="#c43" x="12"/><use href="#c6f" x="18"/><use href="#c69" x="24"/><use href="#c6e" x="30"/></g><rect class="led" style="animation-duration:1.09s;animation-delay:0.91s" x="364" y="302" width="6" height="6" fill="#e55273"/><path d="M4 0H166V2H168V4H170V58H168V60H166V62H4V60H2V58H0V4H2V2H4Z" transform="translate(23 371)" fill="#1e1020" stroke="#4a2045" stroke-width="2"/><g transform="translate(30 378) scale(2)"><path fill="#103b8a" d="M2 0h7v1h-7zM15 0h7v1h-7zM1 1h5v1h-5zM18 1h5v1h-5zM0 2h5v1h-5zM19 2h5v1h-5zM0 3h4v1h-4zM20 3h4v1h-4zM0 4h3v1h-3zM21 4h3v1h-3zM0 5h2v1h-2zM22 5h2v1h-2zM0 6h1v1h-1zM23 6h1v1h-1zM0 7h1v1h-1zM7 7h1v1h-1zM13 7h1v1h-1zM21 7h1v1h-1zM23 7h1v1h-1zM0 8h1v1h-1zM7 8h1v1h-1zM12 8h2v1h-2zM23 8h1v1h-1zM8 9h1v1h-1zM13 9h1v1h-1zM17 9h1v1h-1zM16 10h1v1h-1zM6 11h1v1h-1zM11 11h2v1h-2zM17 11h1v1h-1zM21 11h1v1h-1zM7 12h1v1h-1zM6 14h1v1h-1zM10 14h2v1h-2zM0 15h1v1h-1zM23 15h1v1h-1zM0 16h1v1h-1zM2 16h1v1h-1zM14 16h1v1h-1zM23 16h1v1h-1zM0 17h1v1h-1zM23 17h1v1h-1zM0 18h2v1h-2zM22 18h2v1h-2zM0 19h3v1h-3zM21 19h3v1h-3zM0 20h4v1h-4zM20 20h4v1h-4zM0 21h5v1h-5zM19 21h5v1h-5zM1 22h5v1h-5zM18 22h5v1h-5zM2 23h7v1h-7zM15 23h7v1h-7z"/><path fill="#093687" d="M9 0h6v1h-6zM7 1h10v1h-10zM5 2h14v1h-14zM4 3h16v1h-16zM3 4h18v1h-18zM2 5h20v1h-20zM2 6h20v1h-20zM1 7h3v1h-3zM8 7h1v1h-1zM22 7h1v1h-1zM1 8h3v1h-3zM8 8h1v1h-1zM22 8h1v1h-1zM1 9h2v1h-2zM7 9h1v1h-1zM12 9h1v1h-1zM22 9h1v1h-1zM0 10h3v1h-3zM7 10h1v1h-1zM12 10h1v1h-1zM17 10h1v1h-1zM22 10h2v1h-2zM0 11h3v1h-3zM7 11h1v1h-1zM16 11h1v1h-1zM22 11h2v1h-2zM0 12h2v1h-2zM6 12h1v1h-1zM11 12h1v1h-1zM21 12h3v1h-3zM0 13h2v1h-2zM6 13h1v1h-1zM11 13h1v1h-1zM20 13h4v1h-4zM1 14h1v1h-1zM15 14h8v1h-8zM1 15h1v1h-1zM10 15h1v1h-1zM15 15h8v1h-8zM1 16h1v1h-1zM10 16h1v1h-1zM15 16h8v1h-8zM2 17h20v1h-20zM2 18h20v1h-20zM3 19h18v1h-18zM4 20h16v1h-16zM5 21h14v1h-14zM7 22h10v1h-10zM9 23h6v1h-6z"/><path fill="#062969" d="M6 1h1v1h-1zM17 1h1v1h-1zM1 6h1v1h-1zM22 6h1v1h-1zM0 9h1v1h-1zM23 9h1v1h-1zM0 14h1v1h-1zM23 14h1v1h-1zM1 17h1v1h-1zM22 17h1v1h-1zM6 22h1v1h-1zM17 22h1v1h-1z"/><path fill="#637fb3" d="M4 7h3v1h-3zM9 7h4v1h-4zM14 7h7v1h-7zM3 9h1v1h-1zM11 9h1v1h-1zM16 9h1v1h-1zM18 9h1v1h-1zM3 10h1v1h-1zM6 10h1v1h-1zM8 10h1v1h-1zM11 10h1v1h-1zM18 10h1v1h-1zM21 10h1v1h-1zM2 12h1v1h-1zM12 12h1v1h-1zM20 12h1v1h-1zM2 13h1v1h-1zM5 13h1v1h-1zM7 13h1v1h-1zM10 13h1v1h-1zM16 13h4v1h-4zM5 14h1v1h-1zM11 15h1v1h-1zM14 15h1v1h-1zM3 16h7v1h-7zM11 16h3v1h-3z"/><path fill="#d2daea" d="M4 8h1v1h-1zM9 8h1v1h-1zM11 8h1v1h-1zM21 8h1v1h-1zM6 9h1v1h-1zM10 9h1v1h-1zM14 9h1v1h-1zM21 9h1v1h-1zM13 10h1v1h-1zM3 11h1v1h-1zM8 11h1v1h-1zM15 11h1v1h-1zM18 11h1v1h-1zM5 12h1v1h-1zM10 12h1v1h-1zM16 12h1v1h-1zM12 13h1v1h-1zM15 13h1v1h-1zM2 14h1v1h-1zM7 14h1v1h-1zM14 14h1v1h-1zM2 15h1v1h-1zM9 15h1v1h-1z"/><path fill="#ffffff" d="M5 8h2v1h-2zM10 8h1v1h-1zM14 8h7v1h-7zM4 9h2v1h-2zM9 9h1v1h-1zM15 9h1v1h-1zM19 9h2v1h-2zM4 10h2v1h-2zM9 10h2v1h-2zM14 10h2v1h-2zM19 10h2v1h-2zM4 11h2v1h-2zM9 11h2v1h-2zM13 11h2v1h-2zM19 11h2v1h-2zM3 12h2v1h-2zM8 12h2v1h-2zM13 12h3v1h-3zM17 12h3v1h-3zM3 13h2v1h-2zM8 13h2v1h-2zM13 13h2v1h-2zM3 14h2v1h-2zM8 14h2v1h-2zM12 14h2v1h-2zM3 15h6v1h-6zM12 15h2v1h-2z"/></g><g fill="#f2d8c9" transform="translate(88 395) scale(2)"><use href="#c55" x="0"/><use href="#c70" x="6"/><use href="#c62" x="12"/><use href="#c69" x="18"/><use href="#c74" x="24"/></g><rect class="led" style="animation-duration:1.46s;animation-delay:1.04s" x="180" y="378" width="6" height="6" fill="#e55273"/><path d="M4 0H166V2H168V4H170V58H168V60H166V62H4V60H2V58H0V4H2V2H4Z" transform="translate(207 371)" fill="#1e1020" stroke="#4a2045" stroke-width="2"/><g transform="translate(214 378) scale(2)"><path fill="#4e7fac" d="M2 0h7v1h-7zM15 0h7v1h-7zM1 1h5v1h-5zM18 1h5v1h-5zM0 2h5v1h-5zM19 2h5v1h-5zM0 3h4v1h-4zM20 3h4v1h-4zM0 4h3v1h-3zM21 4h3v1h-3zM0 5h2v1h-2zM12 5h1v1h-1zM22 5h2v1h-2zM0 6h1v1h-1zM11 6h1v1h-1zM23 6h1v1h-1zM0 7h1v1h-1zM23 7h1v1h-1zM0 8h1v1h-1zM13 8h1v1h-1zM23 8h1v1h-1zM13 9h1v1h-1zM12 11h1v1h-1zM15 11h1v1h-1zM14 12h2v1h-2zM14 13h2v1h-2zM13 14h4v1h-4zM0 15h1v1h-1zM13 15h3v1h-3zM23 15h1v1h-1zM0 16h1v1h-1zM12 16h4v1h-4zM23 16h1v1h-1zM0 17h1v1h-1zM13 17h2v1h-2zM23 17h1v1h-1zM0 18h2v1h-2zM13 18h1v1h-1zM22 18h2v1h-2zM0 19h3v1h-3zM21 19h3v1h-3zM0 20h4v1h-4zM20 20h4v1h-4zM0 21h5v1h-5zM19 21h5v1h-5zM1 22h5v1h-5zM18 22h5v1h-5zM2 23h7v1h-7zM15 23h7v1h-7z"/><path fill="#e8edf1" d="M9 0h1v1h-1zM14 0h1v1h-1zM6 1h1v1h-1zM17 1h1v1h-1zM11 4h1v1h-1zM1 6h1v1h-1zM13 6h1v1h-1zM22 6h1v1h-1zM0 9h1v1h-1zM9 9h1v1h-1zM23 9h1v1h-1zM8 10h1v1h-1zM13 10h3v1h-3zM13 12h1v1h-1zM11 13h1v1h-1zM0 14h1v1h-1zM12 14h1v1h-1zM23 14h1v1h-1zM10 15h1v1h-1zM10 16h1v1h-1zM16 16h1v1h-1zM1 17h1v1h-1zM22 17h1v1h-1zM8 18h1v1h-1zM12 18h1v1h-1zM10 19h2v1h-2zM13 19h1v1h-1zM6 22h1v1h-1zM17 22h1v1h-1zM9 23h1v1h-1zM14 23h1v1h-1z"/><path fill="#ffffff" d="M10 0h4v1h-4zM7 1h10v1h-10zM5 2h14v1h-14zM4 3h16v1h-16zM3 4h8v1h-8zM12 4h9v1h-9zM2 5h9v1h-9zM13 5h9v1h-9zM2 6h9v1h-9zM14 6h8v1h-8zM1 7h10v1h-10zM14 7h9v1h-9zM1 8h9v1h-9zM14 8h9v1h-9zM1 9h8v1h-8zM14 9h9v1h-9zM0 10h8v1h-8zM16 10h8v1h-8zM0 11h8v1h-8zM13 11h1v1h-1zM16 11h8v1h-8zM0 12h7v1h-7zM12 12h1v1h-1zM17 12h7v1h-7zM0 13h7v1h-7zM12 13h1v1h-1zM17 13h7v1h-7zM1 14h6v1h-6zM11 14h1v1h-1zM17 14h6v1h-6zM1 15h6v1h-6zM11 15h1v1h-1zM17 15h6v1h-6zM1 16h6v1h-6zM11 16h1v1h-1zM17 16h6v1h-6zM2 17h6v1h-6zM11 17h1v1h-1zM16 17h6v1h-6zM2 18h6v1h-6zM11 18h1v1h-1zM15 18h7v1h-7zM3 19h7v1h-7zM12 19h1v1h-1zM14 19h7v1h-7zM4 20h16v1h-16zM5 21h14v1h-14zM7 22h10v1h-10zM10 23h4v1h-4z"/><path fill="#98aab8" d="M11 5h1v1h-1zM13 7h1v1h-1zM10 8h1v1h-1zM14 11h1v1h-1zM7 12h1v1h-1zM16 12h1v1h-1zM13 13h1v1h-1zM16 13h1v1h-1zM10 14h1v1h-1zM12 15h1v1h-1zM16 15h1v1h-1zM7 16h1v1h-1zM10 17h1v1h-1zM12 17h1v1h-1zM15 17h1v1h-1zM14 18h1v1h-1z"/><path fill="#000524" d="M12 6h1v1h-1zM12 7h1v1h-1zM11 8h2v1h-2zM11 9h2v1h-2zM10 10h3v1h-3zM9 11h3v1h-3zM8 12h3v1h-3zM8 13h3v1h-3zM8 14h2v1h-2zM8 15h2v1h-2zM8 16h2v1h-2zM9 17h1v1h-1z"/><path fill="#353857" d="M11 7h1v1h-1zM10 9h1v1h-1zM9 10h1v1h-1zM8 11h1v1h-1zM11 12h1v1h-1zM7 13h1v1h-1zM7 14h1v1h-1zM7 15h1v1h-1zM8 17h1v1h-1zM9 18h2v1h-2z"/></g><g fill="#f2d8c9" transform="translate(272 395) scale(2)"><use href="#c48" x="0"/><use href="#c54" x="6"/><use href="#c58" x="12"/></g><rect class="led" style="animation-duration:0.73s;animation-delay:1.17s" x="364" y="378" width="6" height="6" fill="#e55273"/></svg>
