<svg xmlns="http://www.w3.org/2000/svg" width="400" height="530" viewBox="0 0 400 530" shape-rendering="crispEdges" role="img"><title>Choi Jungwoo — boot screen</title><style>
.a{opacity:0;animation:on 1ms steps(1) forwards}
.m{opacity:0;animation:hold .12s steps(1)}
.wipe{animation:wipe .84s steps(12,end) .3s forwards}
.blink{animation:blink 1.06s steps(1) infinite}
.roll{animation:roll 7s linear infinite}
@keyframes on{to{opacity:1}}
@keyframes hold{from,to{opacity:1}}
@keyframes wipe{to{transform:translateX(360px)}}
@keyframes blink{50%{opacity:0}}
@keyframes roll{from{transform:translateY(-120px)}to{transform:translateY(530px)}}
@media (prefers-reduced-motion:reduce){.a{animation:none;opacity:1}.m,.wipe,.roll{animation:none;display:none}.blink{animation:none}}
</style><defs><path id="c26" d="M1 0h2v1h-2zM0 1h1v1h-1zM3 1h1v1h-1zM0 2h1v1h-1zM2 2h1v1h-1zM1 3h1v1h-1zM0 4h1v1h-1zM2 4h1v1h-1zM4 4h1v1h-1zM0 5h1v1h-1zM3 5h1v1h-1zM1 6h2v1h-2zM4 6h1v1h-1z"/><path id="c28" d="M3 0h1v1h-1zM2 1h1v1h-1zM1 2h1v1h-1zM1 3h1v1h-1zM1 4h1v1h-1zM2 5h1v1h-1zM3 6h1v1h-1z"/><path id="c29" d="M1 0h1v1h-1zM2 1h1v1h-1zM3 2h1v1h-1zM3 3h1v1h-1zM3 4h1v1h-1zM2 5h1v1h-1zM1 6h1v1h-1z"/><path id="c2d" d="M0 3h5v1h-5z"/><path id="c2e" d="M1 5h2v1h-2zM1 6h2v1h-2z"/><path id="c2f" d="M4 1h1v1h-1zM3 2h1v1h-1zM2 3h1v1h-1zM1 4h1v1h-1zM0 5h1v1h-1z"/><path id="c30" d="M1 0h3v1h-3zM0 1h1v1h-1zM4 1h1v1h-1zM0 2h1v1h-1zM3 2h2v1h-2zM0 3h1v1h-1zM2 3h1v1h-1zM4 3h1v1h-1zM0 4h2v1h-2zM4 4h1v1h-1zM0 5h1v1h-1zM4 5h1v1h-1zM1 6h3v1h-3z"/><path id="c31" d="M2 0h1v1h-1zM1 1h2v1h-2zM2 2h1v1h-1zM2 3h1v1h-1zM2 4h1v1h-1zM2 5h1v1h-1zM1 6h3v1h-3z"/><path id="c32" d="M1 0h3v1h-3zM0 1h1v1h-1zM4 1h1v1h-1zM4 2h1v1h-1zM3 3h1v1h-1zM2 4h1v1h-1zM1 5h1v1h-1zM0 6h5v1h-5z"/><path id="c33" d="M0 0h5v1h-5zM3 1h1v1h-1zM2 2h1v1h-1zM3 3h1v1h-1zM4 4h1v1h-1zM0 5h1v1h-1zM4 5h1v1h-1zM1 6h3v1h-3z"/><path id="c34" d="M3 0h1v1h-1zM2 1h2v1h-2zM1 2h1v1h-1zM3 2h1v1h-1zM0 3h1v1h-1zM3 3h1v1h-1zM0 4h5v1h-5zM3 5h1v1h-1zM3 6h1v1h-1z"/><path id="c35" d="M0 0h5v1h-5zM0 1h1v1h-1zM0 2h4v1h-4zM4 3h1v1h-1zM4 4h1v1h-1zM0 5h1v1h-1zM4 5h1v1h-1zM1 6h3v1h-3z"/><path id="c36" d="M2 0h2v1h-2zM1 1h1v1h-1zM0 2h1v1h-1zM0 3h4v1h-4zM0 4h1v1h-1zM4 4h1v1h-1zM0 5h1v1h-1zM4 5h1v1h-1zM1 6h3v1h-3z"/><path id="c37" d="M0 0h5v1h-5zM4 1h1v1h-1zM3 2h1v1h-1zM2 3h1v1h-1zM1 4h1v1h-1zM1 5h1v1h-1zM1 6h1v1h-1z"/><path id="c38" d="M1 0h3v1h-3zM0 1h1v1h-1zM4 1h1v1h-1zM0 2h1v1h-1zM4 2h1v1h-1zM1 3h3v1h-3zM0 4h1v1h-1zM4 4h1v1h-1zM0 5h1v1h-1zM4 5h1v1h-1zM1 6h3v1h-3z"/><path id="c39" d="M1 0h3v1h-3zM0 1h1v1h-1zM4 1h1v1h-1zM0 2h1v1h-1zM4 2h1v1h-1zM1 3h4v1h-4zM4 4h1v1h-1zM3 5h1v1h-1zM1 6h2v1h-2z"/><path id="c3a" d="M1 1h2v1h-2zM1 2h2v1h-2zM1 4h2v1h-2zM1 5h2v1h-2z"/><path id="c42" d="M0 0h4v1h-4zM0 1h1v1h-1zM4 1h1v1h-1zM0 2h1v1h-1zM4 2h1v1h-1zM0 3h4v1h-4zM0 4h1v1h-1zM4 4h1v1h-1zM0 5h1v1h-1zM4 5h1v1h-1zM0 6h4v1h-4z"/><path id="c43" d="M1 0h3v1h-3zM0 1h1v1h-1zM4 1h1v1h-1zM0 2h1v1h-1zM0 3h1v1h-1zM0 4h1v1h-1zM0 5h1v1h-1zM4 5h1v1h-1zM1 6h3v1h-3z"/><path id="c44" d="M0 0h3v1h-3zM0 1h1v1h-1zM3 1h1v1h-1zM0 2h1v1h-1zM4 2h1v1h-1zM0 3h1v1h-1zM4 3h1v1h-1zM0 4h1v1h-1zM4 4h1v1h-1zM0 5h1v1h-1zM3 5h1v1h-1zM0 6h3v1h-3z"/><path id="c45" d="M0 0h5v1h-5zM0 1h1v1h-1zM0 2h1v1h-1zM0 3h4v1h-4zM0 4h1v1h-1zM0 5h1v1h-1zM0 6h5v1h-5z"/><path id="c46" d="M0 0h5v1h-5zM0 1h1v1h-1zM0 2h1v1h-1zM0 3h4v1h-4zM0 4h1v1h-1zM0 5h1v1h-1zM0 6h1v1h-1z"/><path id="c47" d="M1 0h3v1h-3zM0 1h1v1h-1zM4 1h1v1h-1zM0 2h1v1h-1zM0 3h1v1h-1zM2 3h3v1h-3zM0 4h1v1h-1zM4 4h1v1h-1zM0 5h1v1h-1zM4 5h1v1h-1zM1 6h4v1h-4z"/><path id="c49" d="M1 0h3v1h-3zM2 1h1v1h-1zM2 2h1v1h-1zM2 3h1v1h-1zM2 4h1v1h-1zM2 5h1v1h-1zM1 6h3v1h-3z"/><path id="c4a" d="M2 0h3v1h-3zM3 1h1v1h-1zM3 2h1v1h-1zM3 3h1v1h-1zM3 4h1v1h-1zM0 5h1v1h-1zM3 5h1v1h-1zM1 6h2v1h-2z"/><path id="c4b" d="M0 0h1v1h-1zM4 0h1v1h-1zM0 1h1v1h-1zM3 1h1v1h-1zM0 2h1v1h-1zM2 2h1v1h-1zM0 3h2v1h-2zM0 4h1v1h-1zM2 4h1v1h-1zM0 5h1v1h-1zM3 5h1v1h-1zM0 6h1v1h-1zM4 6h1v1h-1z"/><path id="c4d" d="M0 0h1v1h-1zM4 0h1v1h-1zM0 1h2v1h-2zM3 1h2v1h-2zM0 2h1v1h-1zM2 2h1v1h-1zM4 2h1v1h-1zM0 3h1v1h-1zM2 3h1v1h-1zM4 3h1v1h-1zM0 4h1v1h-1zM4 4h1v1h-1zM0 5h1v1h-1zM4 5h1v1h-1zM0 6h1v1h-1zM4 6h1v1h-1z"/><path id="c4f" d="M1 0h3v1h-3zM0 1h1v1h-1zM4 1h1v1h-1zM0 2h1v1h-1zM4 2h1v1h-1zM0 3h1v1h-1zM4 3h1v1h-1zM0 4h1v1h-1zM4 4h1v1h-1zM0 5h1v1h-1zM4 5h1v1h-1zM1 6h3v1h-3z"/><path id="c50" d="M0 0h4v1h-4zM0 1h1v1h-1zM4 1h1v1h-1zM0 2h1v1h-1zM4 2h1v1h-1zM0 3h4v1h-4zM0 4h1v1h-1zM0 5h1v1h-1zM0 6h1v1h-1z"/><path id="c51" d="M1 0h3v1h-3zM0 1h1v1h-1zM4 1h1v1h-1zM0 2h1v1h-1zM4 2h1v1h-1zM0 3h1v1h-1zM4 3h1v1h-1zM0 4h1v1h-1zM2 4h1v1h-1zM4 4h1v1h-1zM0 5h1v1h-1zM3 5h1v1h-1zM1 6h2v1h-2zM4 6h1v1h-1z"/><path id="c52" d="M0 0h4v1h-4zM0 1h1v1h-1zM4 1h1v1h-1zM0 2h1v1h-1zM4 2h1v1h-1zM0 3h4v1h-4zM0 4h1v1h-1zM2 4h1v1h-1zM0 5h1v1h-1zM3 5h1v1h-1zM0 6h1v1h-1zM4 6h1v1h-1z"/><path id="c53" d="M1 0h4v1h-4zM0 1h1v1h-1zM0 2h1v1h-1zM1 3h3v1h-3zM4 4h1v1h-1zM4 5h1v1h-1zM0 6h4v1h-4z"/><path id="c54" d="M0 0h5v1h-5zM2 1h1v1h-1zM2 2h1v1h-1zM2 3h1v1h-1zM2 4h1v1h-1zM2 5h1v1h-1zM2 6h1v1h-1z"/><path id="c55" d="M0 0h1v1h-1zM4 0h1v1h-1zM0 1h1v1h-1zM4 1h1v1h-1zM0 2h1v1h-1zM4 2h1v1h-1zM0 3h1v1h-1zM4 3h1v1h-1zM0 4h1v1h-1zM4 4h1v1h-1zM0 5h1v1h-1zM4 5h1v1h-1zM1 6h3v1h-3z"/><path id="c56" d="M0 0h1v1h-1zM4 0h1v1h-1zM0 1h1v1h-1zM4 1h1v1h-1zM0 2h1v1h-1zM4 2h1v1h-1zM0 3h1v1h-1zM4 3h1v1h-1zM0 4h1v1h-1zM4 4h1v1h-1zM1 5h1v1h-1zM3 5h1v1h-1zM2 6h1v1h-1z"/><path id="c57" d="M0 0h1v1h-1zM4 0h1v1h-1zM0 1h1v1h-1zM4 1h1v1h-1zM0 2h1v1h-1zM4 2h1v1h-1zM0 3h1v1h-1zM2 3h1v1h-1zM4 3h1v1h-1zM0 4h1v1h-1zM2 4h1v1h-1zM4 4h1v1h-1zM0 5h1v1h-1zM2 5h1v1h-1zM4 5h1v1h-1zM1 6h1v1h-1zM3 6h1v1h-1z"/><path id="c58" d="M0 0h1v1h-1zM4 0h1v1h-1zM0 1h1v1h-1zM4 1h1v1h-1zM1 2h1v1h-1zM3 2h1v1h-1zM2 3h1v1h-1zM1 4h1v1h-1zM3 4h1v1h-1zM0 5h1v1h-1zM4 5h1v1h-1zM0 6h1v1h-1zM4 6h1v1h-1z"/><path id="c5b" d="M1 0h3v1h-3zM1 1h1v1h-1zM1 2h1v1h-1zM1 3h1v1h-1zM1 4h1v1h-1zM1 5h1v1h-1zM1 6h3v1h-3z"/><path id="c5d" d="M1 0h3v1h-3zM3 1h1v1h-1zM3 2h1v1h-1zM3 3h1v1h-1zM3 4h1v1h-1zM3 5h1v1h-1zM1 6h3v1h-3z"/><path id="c61" d="M1 2h3v1h-3zM4 3h1v1h-1zM1 4h4v1h-4zM0 5h1v1h-1zM4 5h1v1h-1zM1 6h4v1h-4z"/><path id="c62" d="M0 0h1v1h-1zM0 1h1v1h-1zM0 2h1v1h-1zM2 2h2v1h-2zM0 3h2v1h-2zM4 3h1v1h-1zM0 4h1v1h-1zM4 4h1v1h-1zM0 5h1v1h-1zM4 5h1v1h-1zM0 6h4v1h-4z"/><path id="c63" d="M1 2h3v1h-3zM0 3h1v1h-1zM0 4h1v1h-1zM0 5h1v1h-1zM4 5h1v1h-1zM1 6h3v1h-3z"/><path id="c64" d="M4 0h1v1h-1zM4 1h1v1h-1zM1 2h2v1h-2zM4 2h1v1h-1zM0 3h1v1h-1zM3 3h2v1h-2zM0 4h1v1h-1zM4 4h1v1h-1zM0 5h1v1h-1zM4 5h1v1h-1zM1 6h4v1h-4z"/><path id="c65" d="M1 2h3v1h-3zM0 3h1v1h-1zM4 3h1v1h-1zM0 4h5v1h-5zM0 5h1v1h-1zM1 6h3v1h-3z"/><path id="c66" d="M2 0h2v1h-2zM1 1h1v1h-1zM4 1h1v1h-1zM1 2h1v1h-1zM0 3h3v1h-3zM1 4h1v1h-1zM1 5h1v1h-1zM1 6h1v1h-1z"/><path id="c67" d="M1 2h4v1h-4zM0 3h1v1h-1zM4 3h1v1h-1zM0 4h1v1h-1zM4 4h1v1h-1zM1 5h4v1h-4zM4 6h1v1h-1zM1 7h3v1h-3z"/><path id="c68" d="M0 0h1v1h-1zM0 1h1v1h-1zM0 2h1v1h-1zM2 2h2v1h-2zM0 3h2v1h-2zM4 3h1v1h-1zM0 4h1v1h-1zM4 4h1v1h-1zM0 5h1v1h-1zM4 5h1v1h-1zM0 6h1v1h-1zM4 6h1v1h-1z"/><path id="c69" d="M2 0h1v1h-1zM1 2h2v1h-2zM2 3h1v1h-1zM2 4h1v1h-1zM2 5h1v1h-1zM1 6h3v1h-3z"/><path id="c6b" d="M0 0h1v1h-1zM0 1h1v1h-1zM0 2h1v1h-1zM3 2h1v1h-1zM0 3h1v1h-1zM2 3h1v1h-1zM0 4h2v1h-2zM0 5h1v1h-1zM2 5h1v1h-1zM0 6h1v1h-1zM3 6h1v1h-1z"/><path id="c6c" d="M1 0h2v1h-2zM2 1h1v1h-1zM2 2h1v1h-1zM2 3h1v1h-1zM2 4h1v1h-1zM2 5h1v1h-1zM1 6h3v1h-3z"/><path id="c6d" d="M0 2h2v1h-2zM3 2h1v1h-1zM0 3h1v1h-1zM2 3h1v1h-1zM4 3h1v1h-1zM0 4h1v1h-1zM2 4h1v1h-1zM4 4h1v1h-1zM0 5h1v1h-1zM4 5h1v1h-1zM0 6h1v1h-1zM4 6h1v1h-1z"/><path id="c6e" d="M0 2h1v1h-1zM2 2h2v1h-2zM0 3h2v1h-2zM4 3h1v1h-1zM0 4h1v1h-1zM4 4h1v1h-1zM0 5h1v1h-1zM4 5h1v1h-1zM0 6h1v1h-1zM4 6h1v1h-1z"/><path id="c6f" d="M1 2h3v1h-3zM0 3h1v1h-1zM4 3h1v1h-1zM0 4h1v1h-1zM4 4h1v1h-1zM0 5h1v1h-1zM4 5h1v1h-1zM1 6h3v1h-3z"/><path id="c70" d="M0 2h4v1h-4zM0 3h1v1h-1zM4 3h1v1h-1zM0 4h1v1h-1zM4 4h1v1h-1zM0 5h4v1h-4zM0 6h1v1h-1zM0 7h1v1h-1z"/><path id="c72" d="M0 2h1v1h-1zM2 2h2v1h-2zM0 3h2v1h-2zM4 3h1v1h-1zM0 4h1v1h-1zM0 5h1v1h-1zM0 6h1v1h-1z"/><path id="c73" d="M1 2h3v1h-3zM0 3h1v1h-1zM1 4h3v1h-3zM4 5h1v1h-1zM0 6h4v1h-4z"/><path id="c74" d="M1 0h1v1h-1zM1 1h1v1h-1zM0 2h3v1h-3zM1 3h1v1h-1zM1 4h1v1h-1zM1 5h1v1h-1zM4 5h1v1h-1zM2 6h2v1h-2z"/><path id="c75" d="M0 2h1v1h-1zM4 2h1v1h-1zM0 3h1v1h-1zM4 3h1v1h-1zM0 4h1v1h-1zM4 4h1v1h-1zM0 5h1v1h-1zM3 5h2v1h-2zM1 6h2v1h-2zM4 6h1v1h-1z"/><path id="c76" d="M0 2h1v1h-1zM4 2h1v1h-1zM0 3h1v1h-1zM4 3h1v1h-1zM0 4h1v1h-1zM4 4h1v1h-1zM1 5h1v1h-1zM3 5h1v1h-1zM2 6h1v1h-1z"/><path id="c77" d="M0 2h1v1h-1zM4 2h1v1h-1zM0 3h1v1h-1zM4 3h1v1h-1zM0 4h1v1h-1zM2 4h1v1h-1zM4 4h1v1h-1zM0 5h1v1h-1zM2 5h1v1h-1zM4 5h1v1h-1zM1 6h1v1h-1zM3 6h1v1h-1z"/><path id="c79" d="M0 2h1v1h-1zM4 2h1v1h-1zM0 3h1v1h-1zM4 3h1v1h-1zM0 4h1v1h-1zM4 4h1v1h-1zM1 5h4v1h-4zM4 6h1v1h-1zM1 7h3v1h-3z"/><path id="cd7" d="M0 1h1v1h-1zM4 1h1v1h-1zM1 2h1v1h-1zM3 2h1v1h-1zM2 3h1v1h-1zM1 4h1v1h-1zM3 4h1v1h-1zM0 5h1v1h-1zM4 5h1v1h-1z"/><pattern id="scan" width="3" height="3" patternUnits="userSpaceOnUse"><rect y="2" width="3" height="1" fill="#000" opacity=".28"/></pattern><radialGradient id="vig" r=".75"><stop offset=".6" stop-opacity="0"/><stop offset="1" stop-opacity=".55"/></radialGradient><linearGradient id="bar" x2="0" y2="1"><stop offset="0" stop-color="#8fe3b8" stop-opacity="0"/><stop offset=".5" stop-color="#8fe3b8" stop-opacity=".05"/><stop offset="1" stop-color="#8fe3b8" stop-opacity="0"/></linearGradient><filter id="glow" x="-5%" y="-20%" width="110%" height="140%"><feGaussianBlur stdDeviation="5"/></filter><clipPath id="nameclip"><rect x="8" y="72" width="376" height="67"/></clipPath></defs><path d="M8 0H392V4H396V8H400V522H396V526H392V530H8V526H4V522H0V8H4V4H8Z" fill="#040f0f"/><path d="M8 0H388V4H392V8H396V518H392V522H388V526H8V522H4V518H0V8H4V4H8Z" transform="translate(2 2)" fill="none" stroke="#1b4d3e" stroke-width="2"/><g fill="#d6ffe9" transform="translate(16 28) scale(2)"><use href="#c43" x="0"/><use href="#c4a" x="6"/><use href="#c57" x="12"/><use href="#c4d" x="24"/><use href="#c6f" x="30"/><use href="#c64" x="36"/><use href="#c75" x="42"/><use href="#c6c" x="48"/><use href="#c61" x="54"/><use href="#c72" x="60"/><use href="#c42" x="72"/><use href="#c49" x="78"/><use href="#c4f" x="84"/><use href="#c53" x="90"/><use href="#c76" x="102"/><use href="#c32" x="108"/><use href="#c36" x="114"/><use href="#c2e" x="120"/><use href="#c30" x="126"/><use href="#c39" x="132"/></g><g fill="#4d8f75" transform="translate(16 50) scale(2)"><use href="#c28" x="0"/><use href="#c43" x="6"/><use href="#c29" x="12"/><use href="#c32" x="24"/><use href="#c30" x="30"/><use href="#c32" x="36"/><use href="#c36" x="42"/><use href="#c43" x="54"/><use href="#c68" x="60"/><use href="#c6f" x="66"/><use href="#c69" x="72"/><use href="#c4a" x="84"/><use href="#c75" x="90"/><use href="#c6e" x="96"/><use href="#c67" x="102"/><use href="#c77" x="108"/><use href="#c6f" x="114"/><use href="#c6f" x="120"/></g><g fill="#0cf574" opacity=".45" filter="url(#glow)"><rect x="26" y="88" width="4" height="4"/><rect x="31" y="88" width="4" height="4"/><rect x="36" y="88" width="4" height="4"/><rect x="31" y="93" width="4" height="4"/><rect x="31" y="98" width="4" height="4"/><rect x="31" y="103" width="4" height="4"/><rect x="31" y="108" width="4" height="4"/><rect x="16" y="113" width="4" height="4"/><rect x="31" y="113" width="4" height="4"/><rect x="21" y="118" width="4" height="4"/><rect x="26" y="118" width="4" height="4"/><rect x="46" y="88" width="4" height="4"/><rect x="66" y="88" width="4" height="4"/><rect x="46" y="93" width="4" height="4"/><rect x="66" y="93" width="4" height="4"/><rect x="46" y="98" width="4" height="4"/><rect x="66" y="98" width="4" height="4"/><rect x="46" y="103" width="4" height="4"/><rect x="66" y="103" width="4" height="4"/><rect x="46" y="108" width="4" height="4"/><rect x="66" y="108" width="4" height="4"/><rect x="46" y="113" width="4" height="4"/><rect x="66" y="113" width="4" height="4"/><rect x="51" y="118" width="4" height="4"/><rect x="56" y="118" width="4" height="4"/><rect x="61" y="118" width="4" height="4"/><rect x="76" y="88" width="4" height="4"/><rect x="96" y="88" width="4" height="4"/><rect x="76" y="93" width="4" height="4"/><rect x="96" y="93" width="4" height="4"/><rect x="76" y="98" width="4" height="4"/><rect x="81" y="98" width="4" height="4"/><rect x="96" y="98" width="4" height="4"/><rect x="76" y="103" width="4" height="4"/><rect x="86" y="103" width="4" height="4"/><rect x="96" y="103" width="4" height="4"/><rect x="76" y="108" width="4" height="4"/><rect x="91" y="108" width="4" height="4"/><rect x="96" y="108" width="4" height="4"/><rect x="76" y="113" width="4" height="4"/><rect x="96" y="113" width="4" height="4"/><rect x="76" y="118" width="4" height="4"/><rect x="96" y="118" width="4" height="4"/><rect x="111" y="88" width="4" height="4"/><rect x="116" y="88" width="4" height="4"/><rect x="121" y="88" width="4" height="4"/><rect x="106" y="93" width="4" height="4"/><rect x="126" y="93" width="4" height="4"/><rect x="106" y="98" width="4" height="4"/><rect x="106" y="103" width="4" height="4"/><rect x="116" y="103" width="4" height="4"/><rect x="121" y="103" width="4" height="4"/><rect x="126" y="103" width="4" height="4"/><rect x="106" y="108" width="4" height="4"/><rect x="126" y="108" width="4" height="4"/><rect x="106" y="113" width="4" height="4"/><rect x="126" y="113" width="4" height="4"/><rect x="111" y="118" width="4" height="4"/><rect x="116" y="118" width="4" height="4"/><rect x="121" y="118" width="4" height="4"/><rect x="126" y="118" width="4" height="4"/><rect x="136" y="88" width="4" height="4"/><rect x="156" y="88" width="4" height="4"/><rect x="136" y="93" width="4" height="4"/><rect x="156" y="93" width="4" height="4"/><rect x="136" y="98" width="4" height="4"/><rect x="156" y="98" width="4" height="4"/><rect x="136" y="103" width="4" height="4"/><rect x="146" y="103" width="4" height="4"/><rect x="156" y="103" width="4" height="4"/><rect x="136" y="108" width="4" height="4"/><rect x="146" y="108" width="4" height="4"/><rect x="156" y="108" width="4" height="4"/><rect x="136" y="113" width="4" height="4"/><rect x="146" y="113" width="4" height="4"/><rect x="156" y="113" width="4" height="4"/><rect x="141" y="118" width="4" height="4"/><rect x="151" y="118" width="4" height="4"/><rect x="171" y="88" width="4" height="4"/><rect x="176" y="88" width="4" height="4"/><rect x="181" y="88" width="4" height="4"/><rect x="166" y="93" width="4" height="4"/><rect x="186" y="93" width="4" height="4"/><rect x="166" y="98" width="4" height="4"/><rect x="186" y="98" width="4" height="4"/><rect x="166" y="103" width="4" height="4"/><rect x="186" y="103" width="4" height="4"/><rect x="166" y="108" width="4" height="4"/><rect x="186" y="108" width="4" height="4"/><rect x="166" y="113" width="4" height="4"/><rect x="186" y="113" width="4" height="4"/><rect x="171" y="118" width="4" height="4"/><rect x="176" y="118" width="4" height="4"/><rect x="181" y="118" width="4" height="4"/><rect x="201" y="88" width="4" height="4"/><rect x="206" y="88" width="4" height="4"/><rect x="211" y="88" width="4" height="4"/><rect x="196" y="93" width="4" height="4"/><rect x="216" y="93" width="4" height="4"/><rect x="196" y="98" width="4" height="4"/><rect x="216" y="98" width="4" height="4"/><rect x="196" y="103" width="4" height="4"/><rect x="216" y="103" width="4" height="4"/><rect x="196" y="108" width="4" height="4"/><rect x="216" y="108" width="4" height="4"/><rect x="196" y="113" width="4" height="4"/><rect x="216" y="113" width="4" height="4"/><rect x="201" y="118" width="4" height="4"/><rect x="206" y="118" width="4" height="4"/><rect x="211" y="118" width="4" height="4"/><rect x="261" y="88" width="4" height="4"/><rect x="266" y="88" width="4" height="4"/><rect x="271" y="88" width="4" height="4"/><rect x="256" y="93" width="4" height="4"/><rect x="276" y="93" width="4" height="4"/><rect x="256" y="98" width="4" height="4"/><rect x="256" y="103" width="4" height="4"/><rect x="256" y="108" width="4" height="4"/><rect x="256" y="113" width="4" height="4"/><rect x="276" y="113" width="4" height="4"/><rect x="261" y="118" width="4" height="4"/><rect x="266" y="118" width="4" height="4"/><rect x="271" y="118" width="4" height="4"/><rect x="286" y="88" width="4" height="4"/><rect x="306" y="88" width="4" height="4"/><rect x="286" y="93" width="4" height="4"/><rect x="306" y="93" width="4" height="4"/><rect x="286" y="98" width="4" height="4"/><rect x="306" y="98" width="4" height="4"/><rect x="286" y="103" width="4" height="4"/><rect x="291" y="103" width="4" height="4"/><rect x="296" y="103" width="4" height="4"/><rect x="301" y="103" width="4" height="4"/><rect x="306" y="103" width="4" height="4"/><rect x="286" y="108" width="4" height="4"/><rect x="306" y="108" width="4" height="4"/><rect x="286" y="113" width="4" height="4"/><rect x="306" y="113" width="4" height="4"/><rect x="286" y="118" width="4" height="4"/><rect x="306" y="118" width="4" height="4"/><rect x="321" y="88" width="4" height="4"/><rect x="326" y="88" width="4" height="4"/><rect x="331" y="88" width="4" height="4"/><rect x="316" y="93" width="4" height="4"/><rect x="336" y="93" width="4" height="4"/><rect x="316" y="98" width="4" height="4"/><rect x="336" y="98" width="4" height="4"/><rect x="316" y="103" width="4" height="4"/><rect x="336" y="103" width="4" height="4"/><rect x="316" y="108" width="4" height="4"/><rect x="336" y="108" width="4" height="4"/><rect x="316" y="113" width="4" height="4"/><rect x="336" y="113" width="4" height="4"/><rect x="321" y="118" width="4" height="4"/><rect x="326" y="118" width="4" height="4"/><rect x="331" y="118" width="4" height="4"/><rect x="351" y="88" width="4" height="4"/><rect x="356" y="88" width="4" height="4"/><rect x="361" y="88" width="4" height="4"/><rect x="356" y="93" width="4" height="4"/><rect x="356" y="98" width="4" height="4"/><rect x="356" y="103" width="4" height="4"/><rect x="356" y="108" width="4" height="4"/><rect x="356" y="113" width="4" height="4"/><rect x="351" y="118" width="4" height="4"/><rect x="356" y="118" width="4" height="4"/><rect x="361" y="118" width="4" height="4"/></g><g fill="#0a4a33"><rect x="28" y="90" width="4" height="4"/><rect x="33" y="90" width="4" height="4"/><rect x="38" y="90" width="4" height="4"/><rect x="33" y="95" width="4" height="4"/><rect x="33" y="100" width="4" height="4"/><rect x="33" y="105" width="4" height="4"/><rect x="33" y="110" width="4" height="4"/><rect x="18" y="115" width="4" height="4"/><rect x="33" y="115" width="4" height="4"/><rect x="23" y="120" width="4" height="4"/><rect x="28" y="120" width="4" height="4"/><rect x="48" y="90" width="4" height="4"/><rect x="68" y="90" width="4" height="4"/><rect x="48" y="95" width="4" height="4"/><rect x="68" y="95" width="4" height="4"/><rect x="48" y="100" width="4" height="4"/><rect x="68" y="100" width="4" height="4"/><rect x="48" y="105" width="4" height="4"/><rect x="68" y="105" width="4" height="4"/><rect x="48" y="110" width="4" height="4"/><rect x="68" y="110" width="4" height="4"/><rect x="48" y="115" width="4" height="4"/><rect x="68" y="115" width="4" height="4"/><rect x="53" y="120" width="4" height="4"/><rect x="58" y="120" width="4" height="4"/><rect x="63" y="120" width="4" height="4"/><rect x="78" y="90" width="4" height="4"/><rect x="98" y="90" width="4" height="4"/><rect x="78" y="95" width="4" height="4"/><rect x="98" y="95" width="4" height="4"/><rect x="78" y="100" width="4" height="4"/><rect x="83" y="100" width="4" height="4"/><rect x="98" y="100" width="4" height="4"/><rect x="78" y="105" width="4" height="4"/><rect x="88" y="105" width="4" height="4"/><rect x="98" y="105" width="4" height="4"/><rect x="78" y="110" width="4" height="4"/><rect x="93" y="110" width="4" height="4"/><rect x="98" y="110" width="4" height="4"/><rect x="78" y="115" width="4" height="4"/><rect x="98" y="115" width="4" height="4"/><rect x="78" y="120" width="4" height="4"/><rect x="98" y="120" width="4" height="4"/><rect x="113" y="90" width="4" height="4"/><rect x="118" y="90" width="4" height="4"/><rect x="123" y="90" width="4" height="4"/><rect x="108" y="95" width="4" height="4"/><rect x="128" y="95" width="4" height="4"/><rect x="108" y="100" width="4" height="4"/><rect x="108" y="105" width="4" height="4"/><rect x="118" y="105" width="4" height="4"/><rect x="123" y="105" width="4" height="4"/><rect x="128" y="105" width="4" height="4"/><rect x="108" y="110" width="4" height="4"/><rect x="128" y="110" width="4" height="4"/><rect x="108" y="115" width="4" height="4"/><rect x="128" y="115" width="4" height="4"/><rect x="113" y="120" width="4" height="4"/><rect x="118" y="120" width="4" height="4"/><rect x="123" y="120" width="4" height="4"/><rect x="128" y="120" width="4" height="4"/><rect x="138" y="90" width="4" height="4"/><rect x="158" y="90" width="4" height="4"/><rect x="138" y="95" width="4" height="4"/><rect x="158" y="95" width="4" height="4"/><rect x="138" y="100" width="4" height="4"/><rect x="158" y="100" width="4" height="4"/><rect x="138" y="105" width="4" height="4"/><rect x="148" y="105" width="4" height="4"/><rect x="158" y="105" width="4" height="4"/><rect x="138" y="110" width="4" height="4"/><rect x="148" y="110" width="4" height="4"/><rect x="158" y="110" width="4" height="4"/><rect x="138" y="115" width="4" height="4"/><rect x="148" y="115" width="4" height="4"/><rect x="158" y="115" width="4" height="4"/><rect x="143" y="120" width="4" height="4"/><rect x="153" y="120" width="4" height="4"/><rect x="173" y="90" width="4" height="4"/><rect x="178" y="90" width="4" height="4"/><rect x="183" y="90" width="4" height="4"/><rect x="168" y="95" width="4" height="4"/><rect x="188" y="95" width="4" height="4"/><rect x="168" y="100" width="4" height="4"/><rect x="188" y="100" width="4" height="4"/><rect x="168" y="105" width="4" height="4"/><rect x="188" y="105" width="4" height="4"/><rect x="168" y="110" width="4" height="4"/><rect x="188" y="110" width="4" height="4"/><rect x="168" y="115" width="4" height="4"/><rect x="188" y="115" width="4" height="4"/><rect x="173" y="120" width="4" height="4"/><rect x="178" y="120" width="4" height="4"/><rect x="183" y="120" width="4" height="4"/><rect x="203" y="90" width="4" height="4"/><rect x="208" y="90" width="4" height="4"/><rect x="213" y="90" width="4" height="4"/><rect x="198" y="95" width="4" height="4"/><rect x="218" y="95" width="4" height="4"/><rect x="198" y="100" width="4" height="4"/><rect x="218" y="100" width="4" height="4"/><rect x="198" y="105" width="4" height="4"/><rect x="218" y="105" width="4" height="4"/><rect x="198" y="110" width="4" height="4"/><rect x="218" y="110" width="4" height="4"/><rect x="198" y="115" width="4" height="4"/><rect x="218" y="115" width="4" height="4"/><rect x="203" y="120" width="4" height="4"/><rect x="208" y="120" width="4" height="4"/><rect x="213" y="120" width="4" height="4"/><rect x="263" y="90" width="4" height="4"/><rect x="268" y="90" width="4" height="4"/><rect x="273" y="90" width="4" height="4"/><rect x="258" y="95" width="4" height="4"/><rect x="278" y="95" width="4" height="4"/><rect x="258" y="100" width="4" height="4"/><rect x="258" y="105" width="4" height="4"/><rect x="258" y="110" width="4" height="4"/><rect x="258" y="115" width="4" height="4"/><rect x="278" y="115" width="4" height="4"/><rect x="263" y="120" width="4" height="4"/><rect x="268" y="120" width="4" height="4"/><rect x="273" y="120" width="4" height="4"/><rect x="288" y="90" width="4" height="4"/><rect x="308" y="90" width="4" height="4"/><rect x="288" y="95" width="4" height="4"/><rect x="308" y="95" width="4" height="4"/><rect x="288" y="100" width="4" height="4"/><rect x="308" y="100" width="4" height="4"/><rect x="288" y="105" width="4" height="4"/><rect x="293" y="105" width="4" height="4"/><rect x="298" y="105" width="4" height="4"/><rect x="303" y="105" width="4" height="4"/><rect x="308" y="105" width="4" height="4"/><rect x="288" y="110" width="4" height="4"/><rect x="308" y="110" width="4" height="4"/><rect x="288" y="115" width="4" height="4"/><rect x="308" y="115" width="4" height="4"/><rect x="288" y="120" width="4" height="4"/><rect x="308" y="120" width="4" height="4"/><rect x="323" y="90" width="4" height="4"/><rect x="328" y="90" width="4" height="4"/><rect x="333" y="90" width="4" height="4"/><rect x="318" y="95" width="4" height="4"/><rect x="338" y="95" width="4" height="4"/><rect x="318" y="100" width="4" height="4"/><rect x="338" y="100" width="4" height="4"/><rect x="318" y="105" width="4" height="4"/><rect x="338" y="105" width="4" height="4"/><rect x="318" y="110" width="4" height="4"/><rect x="338" y="110" width="4" height="4"/><rect x="318" y="115" width="4" height="4"/><rect x="338" y="115" width="4" height="4"/><rect x="323" y="120" width="4" height="4"/><rect x="328" y="120" width="4" height="4"/><rect x="333" y="120" width="4" height="4"/><rect x="353" y="90" width="4" height="4"/><rect x="358" y="90" width="4" height="4"/><rect x="363" y="90" width="4" height="4"/><rect x="358" y="95" width="4" height="4"/><rect x="358" y="100" width="4" height="4"/><rect x="358" y="105" width="4" height="4"/><rect x="358" y="110" width="4" height="4"/><rect x="358" y="115" width="4" height="4"/><rect x="353" y="120" width="4" height="4"/><rect x="358" y="120" width="4" height="4"/><rect x="363" y="120" width="4" height="4"/></g><g fill="#0cf574"><rect x="26" y="88" width="4" height="4"/><rect x="31" y="88" width="4" height="4"/><rect x="36" y="88" width="4" height="4"/><rect x="31" y="93" width="4" height="4"/><rect x="31" y="98" width="4" height="4"/><rect x="31" y="103" width="4" height="4"/><rect x="31" y="108" width="4" height="4"/><rect x="16" y="113" width="4" height="4"/><rect x="31" y="113" width="4" height="4"/><rect x="21" y="118" width="4" height="4"/><rect x="26" y="118" width="4" height="4"/><rect x="46" y="88" width="4" height="4"/><rect x="66" y="88" width="4" height="4"/><rect x="46" y="93" width="4" height="4"/><rect x="66" y="93" width="4" height="4"/><rect x="46" y="98" width="4" height="4"/><rect x="66" y="98" width="4" height="4"/><rect x="46" y="103" width="4" height="4"/><rect x="66" y="103" width="4" height="4"/><rect x="46" y="108" width="4" height="4"/><rect x="66" y="108" width="4" height="4"/><rect x="46" y="113" width="4" height="4"/><rect x="66" y="113" width="4" height="4"/><rect x="51" y="118" width="4" height="4"/><rect x="56" y="118" width="4" height="4"/><rect x="61" y="118" width="4" height="4"/><rect x="76" y="88" width="4" height="4"/><rect x="96" y="88" width="4" height="4"/><rect x="76" y="93" width="4" height="4"/><rect x="96" y="93" width="4" height="4"/><rect x="76" y="98" width="4" height="4"/><rect x="81" y="98" width="4" height="4"/><rect x="96" y="98" width="4" height="4"/><rect x="76" y="103" width="4" height="4"/><rect x="86" y="103" width="4" height="4"/><rect x="96" y="103" width="4" height="4"/><rect x="76" y="108" width="4" height="4"/><rect x="91" y="108" width="4" height="4"/><rect x="96" y="108" width="4" height="4"/><rect x="76" y="113" width="4" height="4"/><rect x="96" y="113" width="4" height="4"/><rect x="76" y="118" width="4" height="4"/><rect x="96" y="118" width="4" height="4"/><rect x="111" y="88" width="4" height="4"/><rect x="116" y="88" width="4" height="4"/><rect x="121" y="88" width="4" height="4"/><rect x="106" y="93" width="4" height="4"/><rect x="126" y="93" width="4" height="4"/><rect x="106" y="98" width="4" height="4"/><rect x="106" y="103" width="4" height="4"/><rect x="116" y="103" width="4" height="4"/><rect x="121" y="103" width="4" height="4"/><rect x="126" y="103" width="4" height="4"/><rect x="106" y="108" width="4" height="4"/><rect x="126" y="108" width="4" height="4"/><rect x="106" y="113" width="4" height="4"/><rect x="126" y="113" width="4" height="4"/><rect x="111" y="118" width="4" height="4"/><rect x="116" y="118" width="4" height="4"/><rect x="121" y="118" width="4" height="4"/><rect x="126" y="118" width="4" height="4"/><rect x="136" y="88" width="4" height="4"/><rect x="156" y="88" width="4" height="4"/><rect x="136" y="93" width="4" height="4"/><rect x="156" y="93" width="4" height="4"/><rect x="136" y="98" width="4" height="4"/><rect x="156" y="98" width="4" height="4"/><rect x="136" y="103" width="4" height="4"/><rect x="146" y="103" width="4" height="4"/><rect x="156" y="103" width="4" height="4"/><rect x="136" y="108" width="4" height="4"/><rect x="146" y="108" width="4" height="4"/><rect x="156" y="108" width="4" height="4"/><rect x="136" y="113" width="4" height="4"/><rect x="146" y="113" width="4" height="4"/><rect x="156" y="113" width="4" height="4"/><rect x="141" y="118" width="4" height="4"/><rect x="151" y="118" width="4" height="4"/><rect x="171" y="88" width="4" height="4"/><rect x="176" y="88" width="4" height="4"/><rect x="181" y="88" width="4" height="4"/><rect x="166" y="93" width="4" height="4"/><rect x="186" y="93" width="4" height="4"/><rect x="166" y="98" width="4" height="4"/><rect x="186" y="98" width="4" height="4"/><rect x="166" y="103" width="4" height="4"/><rect x="186" y="103" width="4" height="4"/><rect x="166" y="108" width="4" height="4"/><rect x="186" y="108" width="4" height="4"/><rect x="166" y="113" width="4" height="4"/><rect x="186" y="113" width="4" height="4"/><rect x="171" y="118" width="4" height="4"/><rect x="176" y="118" width="4" height="4"/><rect x="181" y="118" width="4" height="4"/><rect x="201" y="88" width="4" height="4"/><rect x="206" y="88" width="4" height="4"/><rect x="211" y="88" width="4" height="4"/><rect x="196" y="93" width="4" height="4"/><rect x="216" y="93" width="4" height="4"/><rect x="196" y="98" width="4" height="4"/><rect x="216" y="98" width="4" height="4"/><rect x="196" y="103" width="4" height="4"/><rect x="216" y="103" width="4" height="4"/><rect x="196" y="108" width="4" height="4"/><rect x="216" y="108" width="4" height="4"/><rect x="196" y="113" width="4" height="4"/><rect x="216" y="113" width="4" height="4"/><rect x="201" y="118" width="4" height="4"/><rect x="206" y="118" width="4" height="4"/><rect x="211" y="118" width="4" height="4"/><rect x="261" y="88" width="4" height="4"/><rect x="266" y="88" width="4" height="4"/><rect x="271" y="88" width="4" height="4"/><rect x="256" y="93" width="4" height="4"/><rect x="276" y="93" width="4" height="4"/><rect x="256" y="98" width="4" height="4"/><rect x="256" y="103" width="4" height="4"/><rect x="256" y="108" width="4" height="4"/><rect x="256" y="113" width="4" height="4"/><rect x="276" y="113" width="4" height="4"/><rect x="261" y="118" width="4" height="4"/><rect x="266" y="118" width="4" height="4"/><rect x="271" y="118" width="4" height="4"/><rect x="286" y="88" width="4" height="4"/><rect x="306" y="88" width="4" height="4"/><rect x="286" y="93" width="4" height="4"/><rect x="306" y="93" width="4" height="4"/><rect x="286" y="98" width="4" height="4"/><rect x="306" y="98" width="4" height="4"/><rect x="286" y="103" width="4" height="4"/><rect x="291" y="103" width="4" height="4"/><rect x="296" y="103" width="4" height="4"/><rect x="301" y="103" width="4" height="4"/><rect x="306" y="103" width="4" height="4"/><rect x="286" y="108" width="4" height="4"/><rect x="306" y="108" width="4" height="4"/><rect x="286" y="113" width="4" height="4"/><rect x="306" y="113" width="4" height="4"/><rect x="286" y="118" width="4" height="4"/><rect x="306" y="118" width="4" height="4"/><rect x="321" y="88" width="4" height="4"/><rect x="326" y="88" width="4" height="4"/><rect x="331" y="88" width="4" height="4"/><rect x="316" y="93" width="4" height="4"/><rect x="336" y="93" width="4" height="4"/><rect x="316" y="98" width="4" height="4"/><rect x="336" y="98" width="4" height="4"/><rect x="316" y="103" width="4" height="4"/><rect x="336" y="103" width="4" height="4"/><rect x="316" y="108" width="4" height="4"/><rect x="336" y="108" width="4" height="4"/><rect x="316" y="113" width="4" height="4"/><rect x="336" y="113" width="4" height="4"/><rect x="321" y="118" width="4" height="4"/><rect x="326" y="118" width="4" height="4"/><rect x="331" y="118" width="4" height="4"/><rect x="351" y="88" width="4" height="4"/><rect x="356" y="88" width="4" height="4"/><rect x="361" y="88" width="4" height="4"/><rect x="356" y="93" width="4" height="4"/><rect x="356" y="98" width="4" height="4"/><rect x="356" y="103" width="4" height="4"/><rect x="356" y="108" width="4" height="4"/><rect x="356" y="113" width="4" height="4"/><rect x="351" y="118" width="4" height="4"/><rect x="356" y="118" width="4" height="4"/><rect x="361" y="118" width="4" height="4"/></g><g clip-path="url(#nameclip)"><rect class="wipe" x="8" y="72" width="376" height="67" fill="#040f0f"/></g><g transform="translate(340 22) scale(2)"><path fill="#4d8f75" d="M5 0h1v1h-1zM8 0h1v1h-1zM11 0h1v1h-1zM14 0h1v1h-1zM17 0h1v1h-1zM5 1h1v1h-1zM8 1h1v1h-1zM11 1h1v1h-1zM14 1h1v1h-1zM17 1h1v1h-1zM5 2h1v1h-1zM8 2h1v1h-1zM11 2h1v1h-1zM14 2h1v1h-1zM17 2h1v1h-1zM0 5h3v1h-3zM19 5h3v1h-3zM0 8h3v1h-3zM19 8h3v1h-3zM0 11h3v1h-3zM19 11h3v1h-3zM0 14h3v1h-3zM19 14h3v1h-3zM0 17h3v1h-3zM19 17h3v1h-3zM5 19h1v1h-1zM8 19h1v1h-1zM11 19h1v1h-1zM14 19h1v1h-1zM17 19h1v1h-1zM5 20h1v1h-1zM8 20h1v1h-1zM11 20h1v1h-1zM14 20h1v1h-1zM17 20h1v1h-1zM5 21h1v1h-1zM8 21h1v1h-1zM11 21h1v1h-1zM14 21h1v1h-1zM17 21h1v1h-1z"/><path fill="#0cf574" d="M3 3h16v1h-16zM3 4h1v1h-1zM18 4h1v1h-1zM3 5h1v1h-1zM5 5h1v1h-1zM18 5h1v1h-1zM3 6h1v1h-1zM18 6h1v1h-1zM3 7h1v1h-1zM18 7h1v1h-1zM3 8h1v1h-1zM18 8h1v1h-1zM3 9h1v1h-1zM18 9h1v1h-1zM3 10h1v1h-1zM18 10h1v1h-1zM3 11h1v1h-1zM18 11h1v1h-1zM3 12h1v1h-1zM18 12h1v1h-1zM3 13h1v1h-1zM18 13h1v1h-1zM3 14h1v1h-1zM18 14h1v1h-1zM3 15h1v1h-1zM18 15h1v1h-1zM3 16h1v1h-1zM18 16h1v1h-1zM3 17h1v1h-1zM18 17h1v1h-1zM3 18h16v1h-16z"/><path fill="#0a2a22" d="M4 4h14v1h-14zM4 5h1v1h-1zM6 5h12v1h-12zM4 6h14v1h-14zM4 7h4v1h-4zM11 7h1v1h-1zM13 7h3v1h-3zM17 7h1v1h-1zM4 8h5v1h-5zM10 8h2v1h-2zM13 8h3v1h-3zM17 8h1v1h-1zM4 9h5v1h-5zM10 9h2v1h-2zM13 9h3v1h-3zM17 9h1v1h-1zM4 10h5v1h-5zM10 10h2v1h-2zM13 10h1v1h-1zM15 10h1v1h-1zM17 10h1v1h-1zM4 11h5v1h-5zM10 11h2v1h-2zM13 11h1v1h-1zM15 11h1v1h-1zM17 11h1v1h-1zM4 12h2v1h-2zM7 12h2v1h-2zM10 12h2v1h-2zM13 12h1v1h-1zM15 12h1v1h-1zM17 12h1v1h-1zM4 13h3v1h-3zM9 13h4v1h-4zM14 13h1v1h-1zM16 13h2v1h-2zM4 14h14v1h-14zM4 15h14v1h-14zM4 16h14v1h-14zM4 17h14v1h-14z"/><path fill="#0cf574" d="M8 7h3v1h-3zM12 7h1v1h-1zM16 7h1v1h-1zM9 8h1v1h-1zM12 8h1v1h-1zM16 8h1v1h-1zM9 9h1v1h-1zM12 9h1v1h-1zM16 9h1v1h-1zM9 10h1v1h-1zM12 10h1v1h-1zM14 10h1v1h-1zM16 10h1v1h-1zM9 11h1v1h-1zM12 11h1v1h-1zM14 11h1v1h-1zM16 11h1v1h-1zM6 12h1v1h-1zM9 12h1v1h-1zM12 12h1v1h-1zM14 12h1v1h-1zM16 12h1v1h-1zM7 13h2v1h-2zM13 13h1v1h-1zM15 13h1v1h-1z"/></g><g fill="#2fb7e8" transform="translate(16 149) scale(2)"><use href="#c56" x="0"/><use href="#c46" x="6"/><use href="#c58" x="12"/><use href="#c50" x="24"/><use href="#c69" x="30"/><use href="#c70" x="36"/><use href="#c65" x="42"/><use href="#c6c" x="48"/><use href="#c69" x="54"/><use href="#c6e" x="60"/><use href="#c65" x="66"/><use href="#c54" x="78"/><use href="#c44" x="84"/><use href="#c2f" x="96"/><use href="#c51" x="108"/><use href="#c75" x="114"/><use href="#c61" x="120"/><use href="#c6e" x="126"/><use href="#c74" x="132"/><use href="#c53" x="144"/><use href="#c79" x="150"/><use href="#c73" x="156"/><use href="#c74" x="162"/><use href="#c65" x="168"/><use href="#c6d" x="174"/><use href="#c73" x="180"/></g><g fill="#2fb7e8" transform="translate(16 171) scale(2)"><use href="#c52" x="0"/><use href="#c75" x="6"/><use href="#c73" x="12"/><use href="#c74" x="18"/><use href="#c2f" x="30"/><use href="#c47" x="42"/><use href="#c61" x="48"/><use href="#c6d" x="54"/><use href="#c65" x="60"/><use href="#c44" x="72"/><use href="#c65" x="78"/><use href="#c76" x="84"/><use href="#c2f" x="96"/><use href="#c53" x="108"/><use href="#c65" x="114"/><use href="#c63" x="120"/><use href="#c75" x="126"/><use href="#c72" x="132"/><use href="#c69" x="138"/><use href="#c74" x="144"/><use href="#c79" x="150"/></g><g fill="#8fe3b8" transform="translate(16 193) scale(2)"><use href="#c46" x="0"/><use href="#c72" x="6"/><use href="#c6f" x="12"/><use href="#c6d" x="18"/><use href="#c4d" x="30"/><use href="#c61" x="36"/><use href="#c79" x="42"/><use href="#c61" x="48"/><use href="#c70" x="60"/><use href="#c6c" x="66"/><use href="#c75" x="72"/><use href="#c67" x="78"/><use href="#c69" x="84"/><use href="#c6e" x="90"/><use href="#c73" x="96"/></g><g fill="#8fe3b8" transform="translate(16 215) scale(2)"><use href="#c74" x="0"/><use href="#c6f" x="6"/><use href="#c6d" x="18"/><use href="#c61" x="24"/><use href="#c72" x="30"/><use href="#c6b" x="36"/><use href="#c65" x="42"/><use href="#c74" x="48"/><use href="#c61" x="60"/><use href="#c72" x="66"/><use href="#c62" x="72"/><use href="#c69" x="78"/><use href="#c74" x="84"/><use href="#c72" x="90"/><use href="#c61" x="96"/><use href="#c67" x="102"/><use href="#c65" x="108"/><use href="#c2e" x="114"/></g><path d="M16 251h4v2h-4zM24 251h4v2h-4zM32 251h4v2h-4zM40 251h4v2h-4zM48 251h4v2h-4zM56 251h4v2h-4zM64 251h4v2h-4zM72 251h4v2h-4zM80 251h4v2h-4zM88 251h4v2h-4zM96 251h4v2h-4zM104 251h4v2h-4zM112 251h4v2h-4zM120 251h4v2h-4zM128 251h4v2h-4zM136 251h4v2h-4zM144 251h4v2h-4zM152 251h4v2h-4zM160 251h4v2h-4zM168 251h4v2h-4zM176 251h4v2h-4zM184 251h4v2h-4zM192 251h4v2h-4zM200 251h4v2h-4zM208 251h4v2h-4zM216 251h4v2h-4zM224 251h4v2h-4zM232 251h4v2h-4zM240 251h4v2h-4zM248 251h4v2h-4zM256 251h4v2h-4zM264 251h4v2h-4zM272 251h4v2h-4zM280 251h4v2h-4zM288 251h4v2h-4zM296 251h4v2h-4zM304 251h4v2h-4zM312 251h4v2h-4zM320 251h4v2h-4zM328 251h4v2h-4zM336 251h4v2h-4zM344 251h4v2h-4zM352 251h4v2h-4zM360 251h4v2h-4zM368 251h4v2h-4zM376 251h4v2h-4z" fill="#1b4d3e"/><g fill="#8fe3b8" transform="translate(16 267) scale(2)"><use href="#c4d" x="0"/><use href="#c65" x="6"/><use href="#c6d" x="12"/><use href="#c6f" x="18"/><use href="#c72" x="24"/><use href="#c79" x="30"/><use href="#c54" x="42"/><use href="#c65" x="48"/><use href="#c73" x="54"/><use href="#c74" x="60"/><use href="#c3a" x="72"/></g><g class="m" style="animation-delay:1.25s" fill="#d6ffe9" transform="translate(184 267) scale(2)"><use href="#c34" x="6"/><use href="#c30" x="12"/><use href="#c39" x="18"/><use href="#c36" x="24"/><use href="#c4b" x="30"/></g><g class="m" style="animation-delay:1.37s" fill="#d6ffe9" transform="translate(184 267) scale(2)"><use href="#c31" x="0"/><use href="#c32" x="6"/><use href="#c32" x="12"/><use href="#c38" x="18"/><use href="#c38" x="24"/><use href="#c4b" x="30"/></g><g class="m" style="animation-delay:1.49s" fill="#d6ffe9" transform="translate(184 267) scale(2)"><use href="#c32" x="0"/><use href="#c30" x="6"/><use href="#c34" x="12"/><use href="#c38" x="18"/><use href="#c30" x="24"/><use href="#c4b" x="30"/></g><g class="m" style="animation-delay:1.61s" fill="#d6ffe9" transform="translate(184 267) scale(2)"><use href="#c32" x="0"/><use href="#c38" x="6"/><use href="#c36" x="12"/><use href="#c37" x="18"/><use href="#c32" x="24"/><use href="#c4b" x="30"/></g><g class="m" style="animation-delay:1.73s" fill="#d6ffe9" transform="translate(184 267) scale(2)"><use href="#c33" x="0"/><use href="#c36" x="6"/><use href="#c38" x="12"/><use href="#c36" x="18"/><use href="#c34" x="24"/><use href="#c4b" x="30"/></g><g class="m" style="animation-delay:1.85s" fill="#d6ffe9" transform="translate(184 267) scale(2)"><use href="#c34" x="0"/><use href="#c35" x="6"/><use href="#c30" x="12"/><use href="#c35" x="18"/><use href="#c36" x="24"/><use href="#c4b" x="30"/></g><g class="m" style="animation-delay:1.97s" fill="#d6ffe9" transform="translate(184 267) scale(2)"><use href="#c35" x="0"/><use href="#c33" x="6"/><use href="#c32" x="12"/><use href="#c34" x="18"/><use href="#c38" x="24"/><use href="#c4b" x="30"/></g><g class="m" style="animation-delay:2.09s" fill="#d6ffe9" transform="translate(184 267) scale(2)"><use href="#c36" x="0"/><use href="#c31" x="6"/><use href="#c34" x="12"/><use href="#c34" x="18"/><use href="#c30" x="24"/><use href="#c4b" x="30"/></g><g class="a" style="animation-delay:2.21s" fill="#d6ffe9" transform="translate(184 267) scale(2)"><use href="#c36" x="0"/><use href="#c35" x="6"/><use href="#c35" x="12"/><use href="#c33" x="18"/><use href="#c36" x="24"/><use href="#c4b" x="30"/></g><g class="a" style="animation-delay:2.36s" fill="#0cf574" transform="translate(268 267) scale(2)"><use href="#c4f" x="0"/><use href="#c4b" x="6"/></g><g class="a" style="animation-delay:2.66s" fill="#8fe3b8" transform="translate(16 297) scale(2)"><use href="#c44" x="0"/><use href="#c65" x="6"/><use href="#c74" x="12"/><use href="#c65" x="18"/><use href="#c63" x="24"/><use href="#c74" x="30"/><use href="#c69" x="36"/><use href="#c6e" x="42"/><use href="#c67" x="48"/><use href="#c72" x="60"/><use href="#c6f" x="66"/><use href="#c6c" x="72"/><use href="#c65" x="78"/><use href="#c73" x="84"/><use href="#c2e" x="96"/><use href="#c2e" x="102"/><use href="#c2e" x="108"/></g><g class="a" style="animation-delay:2.96s" fill="#8fe3b8" transform="translate(16 319) scale(2)"><use href="#c56" x="0"/><use href="#c46" x="6"/><use href="#c58" x="12"/><use href="#c50" x="24"/><use href="#c69" x="30"/><use href="#c70" x="36"/><use href="#c65" x="42"/><use href="#c6c" x="48"/><use href="#c69" x="54"/><use href="#c6e" x="60"/><use href="#c65" x="66"/><use href="#c54" x="78"/><use href="#c44" x="84"/><use href="#c2e" x="96"/><use href="#c2e" x="102"/><use href="#c2e" x="108"/><use href="#c2e" x="114"/><use href="#c2e" x="120"/><use href="#c2e" x="126"/><use href="#c2e" x="132"/></g><g class="a" style="animation-delay:2.96s" fill="#4d8f75" transform="translate(314 319) scale(2)"><use href="#c5b" x="0"/><use href="#c5d" x="30"/></g><g class="a" style="animation-delay:3.16s" fill="#0cf574" transform="translate(338 319) scale(2)"><use href="#c4f" x="0"/><use href="#c4b" x="6"/></g><g class="a" style="animation-delay:3.26s" fill="#8fe3b8" transform="translate(16 341) scale(2)"><use href="#c52" x="0"/><use href="#c75" x="6"/><use href="#c73" x="12"/><use href="#c74" x="18"/><use href="#cd7" x="30"/><use href="#c4d" x="42"/><use href="#c61" x="48"/><use href="#c79" x="54"/><use href="#c61" x="60"/><use href="#c74" x="72"/><use href="#c6f" x="78"/><use href="#c6f" x="84"/><use href="#c6c" x="90"/><use href="#c63" x="96"/><use href="#c68" x="102"/><use href="#c61" x="108"/><use href="#c69" x="114"/><use href="#c6e" x="120"/><use href="#c2e" x="132"/></g><g class="a" style="animation-delay:3.26s" fill="#4d8f75" transform="translate(314 341) scale(2)"><use href="#c5b" x="0"/><use href="#c5d" x="30"/></g><g class="a" style="animation-delay:3.46s" fill="#0cf574" transform="translate(338 341) scale(2)"><use href="#c4f" x="0"/><use href="#c4b" x="6"/></g><g class="a" style="animation-delay:3.56s" fill="#8fe3b8" transform="translate(16 363) scale(2)"><use href="#c51" x="0"/><use href="#c75" x="6"/><use href="#c61" x="12"/><use href="#c6e" x="18"/><use href="#c74" x="24"/><use href="#c26" x="36"/><use href="#c61" x="48"/><use href="#c72" x="54"/><use href="#c62" x="60"/><use href="#c69" x="72"/><use href="#c6e" x="78"/><use href="#c66" x="84"/><use href="#c72" x="90"/><use href="#c61" x="96"/><use href="#c2e" x="108"/><use href="#c2e" x="114"/><use href="#c2e" x="120"/><use href="#c2e" x="126"/><use href="#c2e" x="132"/></g><g class="a" style="animation-delay:3.56s" fill="#4d8f75" transform="translate(314 363) scale(2)"><use href="#c5b" x="0"/><use href="#c5d" x="30"/></g><g class="a" style="animation-delay:3.76s" fill="#0cf574" transform="translate(338 363) scale(2)"><use href="#c4f" x="0"/><use href="#c4b" x="6"/></g><g class="a" style="animation-delay:3.86s" fill="#8fe3b8" transform="translate(16 385) scale(2)"><use href="#c43" x="0"/><use href="#c72" x="6"/><use href="#c79" x="12"/><use href="#c70" x="18"/><use href="#c74" x="24"/><use href="#c6f" x="30"/><use href="#c69" x="42"/><use href="#c6e" x="48"/><use href="#c74" x="54"/><use href="#c65" x="60"/><use href="#c67" x="66"/><use href="#c72" x="72"/><use href="#c61" x="78"/><use href="#c74" x="84"/><use href="#c69" x="90"/><use href="#c6f" x="96"/><use href="#c6e" x="102"/><use href="#c73" x="108"/><use href="#c2e" x="120"/><use href="#c2e" x="126"/><use href="#c2e" x="132"/></g><g class="a" style="animation-delay:3.86s" fill="#4d8f75" transform="translate(314 385) scale(2)"><use href="#c5b" x="0"/><use href="#c5d" x="30"/></g><g class="a" style="animation-delay:4.06s" fill="#0cf574" transform="translate(338 385) scale(2)"><use href="#c4f" x="0"/><use href="#c4b" x="6"/></g><g class="a" style="animation-delay:4.16s" fill="#8fe3b8" transform="translate(16 407) scale(2)"><use href="#c53" x="0"/><use href="#c65" x="6"/><use href="#c63" x="12"/><use href="#c75" x="18"/><use href="#c72" x="24"/><use href="#c69" x="30"/><use href="#c74" x="36"/><use href="#c79" x="42"/><use href="#c26" x="54"/><use href="#c52" x="66"/><use href="#c45" x="72"/><use href="#c2e" x="84"/><use href="#c2e" x="90"/><use href="#c2e" x="96"/><use href="#c2e" x="102"/><use href="#c2e" x="108"/><use href="#c2e" x="114"/><use href="#c2e" x="120"/><use href="#c2e" x="126"/><use href="#c2e" x="132"/></g><g class="a" style="animation-delay:4.16s" fill="#4d8f75" transform="translate(314 407) scale(2)"><use href="#c5b" x="0"/><use href="#c5d" x="30"/></g><g class="a" style="animation-delay:4.36s" fill="#0cf574" transform="translate(338 407) scale(2)"><use href="#c4f" x="0"/><use href="#c4b" x="6"/></g><g class="a" style="animation-delay:4.46s" fill="#8fe3b8" transform="translate(16 429) scale(2)"><use href="#c47" x="0"/><use href="#c61" x="6"/><use href="#c6d" x="12"/><use href="#c65" x="18"/><use href="#c64" x="30"/><use href="#c65" x="36"/><use href="#c76" x="42"/><use href="#c2e" x="54"/><use href="#c2e" x="60"/><use href="#c2e" x="66"/><use href="#c2e" x="72"/><use href="#c2e" x="78"/><use href="#c2e" x="84"/><use href="#c2e" x="90"/><use href="#c2e" x="96"/><use href="#c2e" x="102"/><use href="#c2e" x="108"/><use href="#c2e" x="114"/><use href="#c2e" x="120"/><use href="#c2e" x="126"/><use href="#c2e" x="132"/></g><g class="a" style="animation-delay:4.46s" fill="#4d8f75" transform="translate(314 429) scale(2)"><use href="#c5b" x="0"/><use href="#c5d" x="30"/></g><g class="a" style="animation-delay:4.66s" fill="#0cf574" transform="translate(338 429) scale(2)"><use href="#c4f" x="0"/><use href="#c4b" x="6"/></g><g class="a" style="animation-delay:5.01s" fill="#d6ffe9" transform="translate(16 463) scale(2)"><use href="#c42" x="0"/><use href="#c6f" x="6"/><use href="#c6f" x="12"/><use href="#c74" x="18"/><use href="#c4f" x="30"/><use href="#c4b" x="36"/><use href="#c2e" x="42"/><use href="#c53" x="54"/><use href="#c63" x="60"/><use href="#c72" x="66"/><use href="#c6f" x="72"/><use href="#c6c" x="78"/><use href="#c6c" x="84"/><use href="#c74" x="96"/><use href="#c6f" x="102"/><use href="#c53" x="114"/><use href="#c45" x="120"/><use href="#c54" x="126"/><use href="#c55" x="132"/><use href="#c50" x="138"/></g><g class="a" style="animation-delay:5.01s"><rect class="blink" x="312" y="463" width="10" height="14" fill="#0cf574"/></g><g fill="#4d8f75" transform="translate(16 500) scale(2)"><use href="#c30" x="0"/><use href="#c39" x="6"/><use href="#c2f" x="12"/><use href="#c32" x="18"/><use href="#c39" x="24"/><use href="#c2f" x="30"/><use href="#c32" x="36"/><use href="#c30" x="42"/><use href="#c32" x="48"/><use href="#c36" x="54"/><use href="#c2d" x="60"/><use href="#c43" x="66"/><use href="#c4a" x="72"/><use href="#c57" x="78"/><use href="#c2d" x="84"/><use href="#c30" x="90"/><use href="#c30" x="96"/></g><rect class="roll" x="4" y="0" width="392" height="120" fill="url(#bar)"/><path d="M8 0H384V4H388V8H392V514H388V518H384V522H8V518H4V514H0V8H4V4H8Z" transform="translate(4 4)" fill="url(#scan)"/><path d="M8 0H384V4H388V8H392V514H388V518H384V522H8V518H4V514H0V8H4V4H8Z" transform="translate(4 4)" fill="url(#vig)"/></svg>
